  0
SECTION
  2
HEADER
  9
$ACADVER
  1
AC1014
  9
$ACADMAINTVER
 70
     9
  9
$DWGCODEPAGE
  3
ANSI_1252
  9
$INSBASE
 10
0.0
 20
0.0
 30
0.0
  9
$EXTMIN
 10
-62.7542
 20
-69.7656
 30
0.0
  9
$EXTMAX
 10
2.8116
 20
108.4322
 30
0.0
  9
$LIMMIN
 10
0.0
 20
0.0
  9
$LIMMAX
 10
12.0
 20
9.0
  9
$ORTHOMODE
 70
     0
  9
$REGENMODE
 70
     1
  9
$FILLMODE
 70
     1
  9
$QTEXTMODE
 70
     0
  9
$MIRRTEXT
 70
     1
  9
$DRAGMODE
 70
     2
  9
$LTSCALE
 40
1.0
  9
$OSMODE
 70
    37
  9
$ATTMODE
 70
     1
  9
$TEXTSIZE
 40
0.2
  9
$TRACEWID
 40
0.05
  9
$TEXTSTYLE
  7
STANDARD
  9
$CLAYER
  8
0
  9
$CELTYPE
  6
BYLAYER
  9
$CECOLOR
 62
   256
  9
$CELTSCALE
 40
1.0
  9
$DELOBJ
 70
     1
  9
$DISPSILH
 70
     0
  9
$DIMSCALE
 40
1.0
  9
$DIMASZ
 40
0.18
  9
$DIMEXO
 40
0.0625
  9
$DIMDLI
 40
0.38
  9
$DIMRND
 40
0.0
  9
$DIMDLE
 40
0.0
  9
$DIMEXE
 40
0.18
  9
$DIMTP
 40
0.0
  9
$DIMTM
 40
0.0
  9
$DIMTXT
 40
0.18
  9
$DIMCEN
 40
0.09
  9
$DIMTSZ
 40
0.0
  9
$DIMTOL
 70
     0
  9
$DIMLIM
 70
     0
  9
$DIMTIH
 70
     1
  9
$DIMTOH
 70
     1
  9
$DIMSE1
 70
     0
  9
$DIMSE2
 70
     0
  9
$DIMTAD
 70
     0
  9
$DIMZIN
 70
     0
  9
$DIMBLK
  1

  9
$DIMASO
 70
     1
  9
$DIMSHO
 70
     1
  9
$DIMPOST
  1

  9
$DIMAPOST
  1

  9
$DIMALT
 70
     0
  9
$DIMALTD
 70
     2
  9
$DIMALTF
 40
25.4
  9
$DIMLFAC
 40
1.0
  9
$DIMTOFL
 70
     0
  9
$DIMTVP
 40
0.0
  9
$DIMTIX
 70
     0
  9
$DIMSOXD
 70
     0
  9
$DIMSAH
 70
     0
  9
$DIMBLK1
  1

  9
$DIMBLK2
  1

  9
$DIMSTYLE
  2
STANDARD
  9
$DIMCLRD
 70
     0
  9
$DIMCLRE
 70
     0
  9
$DIMCLRT
 70
     0
  9
$DIMTFAC
 40
1.0
  9
$DIMGAP
 40
0.09
  9
$DIMJUST
 70
     0
  9
$DIMSD1
 70
     0
  9
$DIMSD2
 70
     0
  9
$DIMTOLJ
 70
     1
  9
$DIMTZIN
 70
     0
  9
$DIMALTZ
 70
     0
  9
$DIMALTTZ
 70
     0
  9
$DIMFIT
 70
     3
  9
$DIMUPT
 70
     0
  9
$DIMUNIT
 70
     2
  9
$DIMDEC
 70
     4
  9
$DIMTDEC
 70
     4
  9
$DIMALTU
 70
     2
  9
$DIMALTTD
 70
     2
  9
$DIMTXSTY
  7
STANDARD
  9
$DIMAUNIT
 70
     0
  9
$LUNITS
 70
     2
  9
$LUPREC
 70
     4
  9
$SKETCHINC
 40
0.1
  9
$FILLETRAD
 40
0.5
  9
$AUNITS
 70
     0
  9
$AUPREC
 70
     0
  9
$MENU
  1
.
  9
$ELEVATION
 40
0.0
  9
$PELEVATION
 40
0.0
  9
$THICKNESS
 40
0.0
  9
$LIMCHECK
 70
     0
  9
$CHAMFERA
 40
0.5
  9
$CHAMFERB
 40
0.5
  9
$CHAMFERC
 40
1.0
  9
$CHAMFERD
 40
0.0
  9
$SKPOLY
 70
     0
  9
$TDCREATE
 40
2456717.532362373
  9
$TDUPDATE
 40
2456717.532362384
  9
$TDINDWG
 40
0.0000000116
  9
$TDUSRTIMER
 40
0.0000000116
  9
$USRTIMER
 70
     1
  9
$ANGBASE
 50
0.0
  9
$ANGDIR
 70
     0
  9
$PDMODE
 70
     0
  9
$PDSIZE
 40
0.0
  9
$PLINEWID
 40
0.0
  9
$COORDS
 70
     1
  9
$SPLFRAME
 70
     0
  9
$SPLINETYPE
 70
     6
  9
$SPLINESEGS
 70
     8
  9
$ATTDIA
 70
     0
  9
$ATTREQ
 70
     1
  9
$HANDLING
 70
     1
  9
$HANDSEED
  5
90
  9
$SURFTAB1
 70
     6
  9
$SURFTAB2
 70
     6
  9
$SURFTYPE
 70
     6
  9
$SURFU
 70
     6
  9
$SURFV
 70
     6
  9
$UCSNAME
  2

  9
$UCSORG
 10
0.0
 20
0.0
 30
0.0
  9
$UCSXDIR
 10
1.0
 20
0.0
 30
0.0
  9
$UCSYDIR
 10
0.0
 20
1.0
 30
0.0
  9
$PUCSNAME
  2

  9
$PUCSORG
 10
0.0
 20
0.0
 30
0.0
  9
$PUCSXDIR
 10
1.0
 20
0.0
 30
0.0
  9
$PUCSYDIR
 10
0.0
 20
1.0
 30
0.0
  9
$USERI1
 70
     0
  9
$USERI2
 70
     0
  9
$USERI3
 70
     0
  9
$USERI4
 70
     0
  9
$USERI5
 70
     0
  9
$USERR1
 40
0.0
  9
$USERR2
 40
0.0
  9
$USERR3
 40
0.0
  9
$USERR4
 40
0.0
  9
$USERR5
 40
0.0
  9
$WORLDVIEW
 70
     1
  9
$SHADEDGE
 70
     3
  9
$SHADEDIF
 70
    70
  9
$TILEMODE
 70
     1
  9
$MAXACTVP
 70
    64
  9
$PINSBASE
 10
0.0
 20
0.0
 30
0.0
  9
$PLIMCHECK
 70
     0
  9
$PEXTMIN
 10
1.000000000000000E+20
 20
1.000000000000000E+20
 30
1.000000000000000E+20
  9
$PEXTMAX
 10
-1.000000000000000E+20
 20
-1.000000000000000E+20
 30
-1.000000000000000E+20
  9
$PLIMMIN
 10
0.0
 20
0.0
  9
$PLIMMAX
 10
12.0
 20
9.0
  9
$UNITMODE
 70
     0
  9
$VISRETAIN
 70
     1
  9
$PLINEGEN
 70
     0
  9
$PSLTSCALE
 70
     1
  9
$TREEDEPTH
 70
  3020
  9
$PICKSTYLE
 70
     1
  9
$CMLSTYLE
  2
STANDARD
  9
$CMLJUST
 70
     0
  9
$CMLSCALE
 40
1.0
  9
$PROXYGRAPHICS
 70
     1
  9
$MEASUREMENT
 70
     0
  0
ENDSEC
  0
SECTION
  2
CLASSES
  0
CLASS
  1
ACDBDICTIONARYWDFLT
  2
AcDbDictionaryWithDefault
  3
ObjectDBX Classes
 90
        0
280
     0
281
     0
  0
CLASS
  1
VISUALSTYLE
  2
AcDbVisualStyle
  3
ObjectDBX Classes
 90
     4095
280
     0
281
     0
  0
CLASS
  1
SCALE
  2
AcDbScale
  3
ObjectDBX Classes
 90
     1153
280
     0
281
     0
  0
CLASS
  1
DICTIONARYVAR
  2
AcDbDictionaryVar
  3
ObjectDBX Classes
 90
        0
280
     0
281
     0
  0
CLASS
  1
XRECORD
  2
AcDbXrecord
  3
AutoCAD 2000
 90
        0
280
     0
281
     0
  0
CLASS
  1
LWPOLYLINE
  2
AcDbPolyline
  3
AutoCAD 2000
 90
        0
280
     0
281
     1
  0
CLASS
  1
HATCH
  2
AcDbHatch
  3
AutoCAD 2000
 90
        0
280
     0
281
     1
  0
CLASS
  1
ACDBPLACEHOLDER
  2
AcDbPlaceHolder
  3
ObjectDBX Classes
 90
        0
280
     0
281
     0
  0
CLASS
  1
LAYOUT
  2
AcDbLayout
  3
ObjectDBX Classes
 90
        0
280
     0
281
     0
  0
ENDSEC
  0
SECTION
  2
TABLES
  0
TABLE
  2
VPORT
  5
8
330
0
100
AcDbSymbolTable
 70
     1
  0
VPORT
  5
29
330
8
100
AcDbSymbolTableRecord
100
AcDbViewportTableRecord
  2
*ACTIVE
 70
     0
 10
0.0
 20
0.0
 11
1.0
 21
1.0
 12
10.42990654205607
 22
4.5
 13
0.0
 23
0.0
 14
0.5
 24
0.5
 15
0.5
 25
0.5
 16
0.0
 26
0.0
 36
1.0
 17
0.0
 27
0.0
 37
0.0
 40
9.0
 41
1.972972972850329
 42
50.0
 43
0.0
 44
0.0
 50
0.0
 51
0.0
 71
     0
 72
   100
 73
     1
 74
     3
 75
     0
 76
     0
 77
     0
 78
     0
  0
ENDTAB
  0
TABLE
  2
LTYPE
  5
5
330
0
100
AcDbSymbolTable
 70
     1
  0
LTYPE
  5
14
330
5
100
AcDbSymbolTableRecord
100
AcDbLinetypeTableRecord
  2
BYBLOCK
 70
     0
  3

 72
    65
 73
     0
 40
0.0
  0
LTYPE
  5
15
330
5
100
AcDbSymbolTableRecord
100
AcDbLinetypeTableRecord
  2
BYLAYER
 70
     0
  3

 72
    65
 73
     0
 40
0.0
  0
LTYPE
  5
16
330
5
100
AcDbSymbolTableRecord
100
AcDbLinetypeTableRecord
  2
CONTINUOUS
 70
     0
  3
Solid line
 72
    65
 73
     0
 40
0.0
  0
ENDTAB
  0
TABLE
  2
LAYER
  5
2
330
0
100
AcDbSymbolTable
 70
     2
  0
LAYER
  5
10
330
2
100
AcDbSymbolTableRecord
100
AcDbLayerTableRecord
  2
0
 70
     0
 62
     7
  6
CONTINUOUS
  0
LAYER
  5
5E
330
2
100
AcDbSymbolTableRecord
100
AcDbLayerTableRecord
  2
LAYER_1
 70
     0
 62
     7
  6
CONTINUOUS
  0
ENDTAB
  0
TABLE
  2
STYLE
  5
3
330
0
100
AcDbSymbolTable
 70
     1
  0
STYLE
  5
11
330
3
100
AcDbSymbolTableRecord
100
AcDbTextStyleTableRecord
  2
STANDARD
 70
     0
 40
0.0
 41
1.0
 50
0.0
 71
     0
 42
0.2
  3
txt
  4

  0
ENDTAB
  0
TABLE
  2
VIEW
  5
6
330
0
100
AcDbSymbolTable
 70
     0
  0
ENDTAB
  0
TABLE
  2
UCS
  5
7
330
0
100
AcDbSymbolTable
 70
     0
  0
ENDTAB
  0
TABLE
  2
APPID
  5
9
330
0
100
AcDbSymbolTable
 70
     2
  0
APPID
  5
12
330
9
100
AcDbSymbolTableRecord
100
AcDbRegAppTableRecord
  2
ACAD
 70
     0
  0
APPID
  5
5D
330
9
100
AcDbSymbolTableRecord
100
AcDbRegAppTableRecord
  2
ODA
 70
     0
  0
ENDTAB
  0
TABLE
  2
DIMSTYLE
  5
A
330
0
100
AcDbSymbolTable
 70
     1
  0
DIMSTYLE
105
27
330
A
100
AcDbSymbolTableRecord
100
AcDbDimStyleTableRecord
  2
STANDARD
 70
     0
  3

  4

  5

  6

  7

 40
1.0
 41
0.18
 42
0.0625
 43
0.38
 44
0.18
 45
0.0
 46
0.0
 47
0.0
 48
0.0
140
0.18
141
0.09
142
0.0
143
25.4
144
1.0
145
0.0
146
1.0
147
0.09
 71
     0
 72
     0
 73
     1
 74
     1
 75
     0
 76
     0
 77
     0
 78
     0
170
     0
171
     2
172
     0
173
     0
174
     0
175
     0
176
     0
177
     0
178
     0
270
     2
271
     4
272
     4
273
     2
274
     2
340
11
275
     0
280
     0
281
     0
282
     0
283
     1
284
     0
285
     0
286
     0
287
     3
288
     0
  0
ENDTAB
  0
TABLE
  2
BLOCK_RECORD
  5
1
330
0
100
AcDbSymbolTable
 70
     1
  0
BLOCK_RECORD
  5
1F
330
1
100
AcDbSymbolTableRecord
100
AcDbBlockTableRecord
  2
*MODEL_SPACE
  0
BLOCK_RECORD
  5
1B
330
1
100
AcDbSymbolTableRecord
100
AcDbBlockTableRecord
  2
*PAPER_SPACE
  0
ENDTAB
  0
ENDSEC
  0
SECTION
  2
BLOCKS
  0
BLOCK
  5
20
330
1F
100
AcDbEntity
  8
0
100
AcDbBlockBegin
  2
*MODEL_SPACE
 70
     0
 10
0.0
 20
0.0
 30
0.0
  3
*MODEL_SPACE
  1

  0
ENDBLK
  5
21
330
1F
100
AcDbEntity
  8
0
100
AcDbBlockEnd
  0
BLOCK
  5
1C
330
1B
100
AcDbEntity
 67
     1
  8
0
100
AcDbBlockBegin
  2
*PAPER_SPACE
 70
     0
 10
0.0
 20
0.0
 30
0.0
  3
*PAPER_SPACE
  1

  0
ENDBLK
  5
1D
330
1B
100
AcDbEntity
 67
     1
  8
0
100
AcDbBlockEnd
  0
ENDSEC
  0
SECTION
  2
ENTITIES
  0
SPLINE
  5
5F
330
1F
100
AcDbEntity
  8
LAYER_1
100
AcDbSpline
210
0.0
220
0.0
230
1.0
 70
    11
 71
     3
 72
    40
 73
    36
 74
     0
 42
0.0000000001
 43
0.0000000001
 40
0.0
 40
0.0
 40
0.0
 40
0.0
 40
0.1111111111111111
 40
0.1111111111111111
 40
0.1111111111111111
 40
0.1111111111111111
 40
0.2222222222222222
 40
0.2222222222222222
 40
0.2222222222222222
 40
0.2222222222222222
 40
0.3333333333333333
 40
0.3333333333333333
 40
0.3333333333333333
 40
0.3333333333333333
 40
0.4444444444444444
 40
0.4444444444444444
 40
0.4444444444444444
 40
0.4444444444444444
 40
0.5555555555555556
 40
0.5555555555555556
 40
0.5555555555555556
 40
0.5555555555555556
 40
0.6666666666666667
 40
0.6666666666666667
 40
0.6666666666666667
 40
0.6666666666666667
 40
0.7777777777777779
 40
0.7777777777777779
 40
0.7777777777777779
 40
0.7777777777777779
 40
0.8888888888888891
 40
0.8888888888888891
 40
0.8888888888888891
 40
0.8888888888888891
 40
1.0
 40
1.0
 40
1.0
 40
1.0
 10
-43.0245
 20
-40.8686
 30
0.0
 10
-43.0245
 20
-40.8686
 30
0.0
 10
-43.0245
 20
-25.9977
 30
0.0
 10
-43.0245
 20
-25.9977
 30
0.0
 10
-43.0245
 20
-25.9977
 30
0.0
 10
-43.0245
 20
-25.9977
 30
0.0
 10
-44.9954
 20
-25.9977
 30
0.0
 10
-44.9954
 20
-25.9977
 30
0.0
 10
-44.9954
 20
-25.9977
 30
0.0
 10
-44.9954
 20
-25.9977
 30
0.0
 10
-46.9663
 20
-25.9977
 30
0.0
 10
-46.9663
 20
-25.9977
 30
0.0
 10
-46.9663
 20
-25.9977
 30
0.0
 10
-46.9663
 20
-25.9977
 30
0.0
 10
-46.9663
 20
-40.8686
 30
0.0
 10
-46.9663
 20
-40.8686
 30
0.0
 10
-46.9663
 20
-40.8686
 30
0.0
 10
-46.9663
 20
-40.8686
 30
0.0
 10
-46.9663
 20
-55.7395
 30
0.0
 10
-46.9663
 20
-55.7395
 30
0.0
 10
-46.9663
 20
-55.7395
 30
0.0
 10
-46.9663
 20
-55.7395
 30
0.0
 10
-44.9954
 20
-55.7395
 30
0.0
 10
-44.9954
 20
-55.7395
 30
0.0
 10
-44.9954
 20
-55.7395
 30
0.0
 10
-44.9954
 20
-55.7395
 30
0.0
 10
-43.0245
 20
-55.7395
 30
0.0
 10
-43.0245
 20
-55.7395
 30
0.0
 10
-43.0245
 20
-55.7395
 30
0.0
 10
-43.0245
 20
-55.7395
 30
0.0
 10
-43.0245
 20
-40.8686
 30
0.0
 10
-43.0245
 20
-40.8686
 30
0.0
 10
-43.0245
 20
-40.8686
 30
0.0
 10
-43.0245
 20
-40.8686
 30
0.0
 10
-43.0245
 20
-40.8686
 30
0.0
 10
-43.0245
 20
-40.8686
 30
0.0
  0
SPLINE
  5
60
330
1F
100
AcDbEntity
  8
LAYER_1
100
AcDbSpline
210
0.0
220
0.0
230
1.0
 70
    11
 71
     3
 72
    40
 73
    36
 74
     0
 42
0.0000000001
 43
0.0000000001
 40
0.0
 40
0.0
 40
0.0
 40
0.0
 40
0.1111111111111111
 40
0.1111111111111111
 40
0.1111111111111111
 40
0.1111111111111111
 40
0.2222222222222222
 40
0.2222222222222222
 40
0.2222222222222222
 40
0.2222222222222222
 40
0.3333333333333333
 40
0.3333333333333333
 40
0.3333333333333333
 40
0.3333333333333333
 40
0.4444444444444444
 40
0.4444444444444444
 40
0.4444444444444444
 40
0.4444444444444444
 40
0.5555555555555556
 40
0.5555555555555556
 40
0.5555555555555556
 40
0.5555555555555556
 40
0.6666666666666667
 40
0.6666666666666667
 40
0.6666666666666667
 40
0.6666666666666667
 40
0.7777777777777779
 40
0.7777777777777779
 40
0.7777777777777779
 40
0.7777777777777779
 40
0.8888888888888891
 40
0.8888888888888891
 40
0.8888888888888891
 40
0.8888888888888891
 40
1.0
 40
1.0
 40
1.0
 40
1.0
 10
-12.9763
 20
-40.8686
 30
0.0
 10
-12.9763
 20
-40.8686
 30
0.0
 10
-12.9763
 20
-25.9977
 30
0.0
 10
-12.9763
 20
-25.9977
 30
0.0
 10
-12.9763
 20
-25.9977
 30
0.0
 10
-12.9763
 20
-25.9977
 30
0.0
 10
-14.9472
 20
-25.9977
 30
0.0
 10
-14.9472
 20
-25.9977
 30
0.0
 10
-14.9472
 20
-25.9977
 30
0.0
 10
-14.9472
 20
-25.9977
 30
0.0
 10
-16.9182
 20
-25.9977
 30
0.0
 10
-16.9182
 20
-25.9977
 30
0.0
 10
-16.9182
 20
-25.9977
 30
0.0
 10
-16.9182
 20
-25.9977
 30
0.0
 10
-16.9182
 20
-40.8686
 30
0.0
 10
-16.9182
 20
-40.8686
 30
0.0
 10
-16.9182
 20
-40.8686
 30
0.0
 10
-16.9182
 20
-40.8686
 30
0.0
 10
-16.9182
 20
-55.7395
 30
0.0
 10
-16.9182
 20
-55.7395
 30
0.0
 10
-16.9182
 20
-55.7395
 30
0.0
 10
-16.9182
 20
-55.7395
 30
0.0
 10
-14.9472
 20
-55.7395
 30
0.0
 10
-14.9472
 20
-55.7395
 30
0.0
 10
-14.9472
 20
-55.7395
 30
0.0
 10
-14.9472
 20
-55.7395
 30
0.0
 10
-12.9763
 20
-55.7395
 30
0.0
 10
-12.9763
 20
-55.7395
 30
0.0
 10
-12.9763
 20
-55.7395
 30
0.0
 10
-12.9763
 20
-55.7395
 30
0.0
 10
-12.9763
 20
-40.8686
 30
0.0
 10
-12.9763
 20
-40.8686
 30
0.0
 10
-12.9763
 20
-40.8686
 30
0.0
 10
-12.9763
 20
-40.8686
 30
0.0
 10
-12.9763
 20
-40.8686
 30
0.0
 10
-12.9763
 20
-40.8686
 30
0.0
  0
SPLINE
  5
61
330
1F
100
AcDbEntity
  8
LAYER_1
100
AcDbSpline
210
0.0
220
0.0
230
1.0
 70
    11
 71
     3
 72
   496
 73
   492
 74
     0
 42
0.0000000001
 43
0.0000000001
 40
0.0
 40
0.0
 40
0.0
 40
0.0
 40
0.008130081300813
 40
0.008130081300813
 40
0.008130081300813
 40
0.008130081300813
 40
0.016260162601626
 40
0.016260162601626
 40
0.016260162601626
 40
0.016260162601626
 40
0.024390243902439
 40
0.024390243902439
 40
0.024390243902439
 40
0.024390243902439
 40
0.032520325203252
 40
0.032520325203252
 40
0.032520325203252
 40
0.032520325203252
 40
0.040650406504065
 40
0.040650406504065
 40
0.040650406504065
 40
0.040650406504065
 40
0.0487804878048781
 40
0.0487804878048781
 40
0.0487804878048781
 40
0.0487804878048781
 40
0.0569105691056911
 40
0.0569105691056911
 40
0.0569105691056911
 40
0.0569105691056911
 40
0.0650406504065041
 40
0.0650406504065041
 40
0.0650406504065041
 40
0.0650406504065041
 40
0.0731707317073171
 40
0.0731707317073171
 40
0.0731707317073171
 40
0.0731707317073171
 40
0.0813008130081301
 40
0.0813008130081301
 40
0.0813008130081301
 40
0.0813008130081301
 40
0.0894308943089431
 40
0.0894308943089431
 40
0.0894308943089431
 40
0.0894308943089431
 40
0.0975609756097561
 40
0.0975609756097561
 40
0.0975609756097561
 40
0.0975609756097561
 40
0.1056910569105691
 40
0.1056910569105691
 40
0.1056910569105691
 40
0.1056910569105691
 40
0.1138211382113821
 40
0.1138211382113821
 40
0.1138211382113821
 40
0.1138211382113821
 40
0.1219512195121951
 40
0.1219512195121951
 40
0.1219512195121951
 40
0.1219512195121951
 40
0.1300813008130081
 40
0.1300813008130081
 40
0.1300813008130081
 40
0.1300813008130081
 40
0.1382113821138211
 40
0.1382113821138211
 40
0.1382113821138211
 40
0.1382113821138211
 40
0.1463414634146341
 40
0.1463414634146341
 40
0.1463414634146341
 40
0.1463414634146341
 40
0.1544715447154471
 40
0.1544715447154471
 40
0.1544715447154471
 40
0.1544715447154471
 40
0.1626016260162601
 40
0.1626016260162601
 40
0.1626016260162601
 40
0.1626016260162601
 40
0.1707317073170731
 40
0.1707317073170731
 40
0.1707317073170731
 40
0.1707317073170731
 40
0.1788617886178861
 40
0.1788617886178861
 40
0.1788617886178861
 40
0.1788617886178861
 40
0.1869918699186991
 40
0.1869918699186991
 40
0.1869918699186991
 40
0.1869918699186991
 40
0.1951219512195121
 40
0.1951219512195121
 40
0.1951219512195121
 40
0.1951219512195121
 40
0.2032520325203251
 40
0.2032520325203251
 40
0.2032520325203251
 40
0.2032520325203251
 40
0.2113821138211381
 40
0.2113821138211381
 40
0.2113821138211381
 40
0.2113821138211381
 40
0.2195121951219511
 40
0.2195121951219511
 40
0.2195121951219511
 40
0.2195121951219511
 40
0.2276422764227641
 40
0.2276422764227641
 40
0.2276422764227641
 40
0.2276422764227641
 40
0.2357723577235771
 40
0.2357723577235771
 40
0.2357723577235771
 40
0.2357723577235771
 40
0.2439024390243901
 40
0.2439024390243901
 40
0.2439024390243901
 40
0.2439024390243901
 40
0.2520325203252031
 40
0.2520325203252031
 40
0.2520325203252031
 40
0.2520325203252031
 40
0.2601626016260161
 40
0.2601626016260161
 40
0.2601626016260161
 40
0.2601626016260161
 40
0.2682926829268291
 40
0.2682926829268291
 40
0.2682926829268291
 40
0.2682926829268291
 40
0.2764227642276421
 40
0.2764227642276421
 40
0.2764227642276421
 40
0.2764227642276421
 40
0.2845528455284551
 40
0.2845528455284551
 40
0.2845528455284551
 40
0.2845528455284551
 40
0.2926829268292681
 40
0.2926829268292681
 40
0.2926829268292681
 40
0.2926829268292681
 40
0.3008130081300811
 40
0.3008130081300811
 40
0.3008130081300811
 40
0.3008130081300811
 40
0.3089430894308941
 40
0.3089430894308941
 40
0.3089430894308941
 40
0.3089430894308941
 40
0.3170731707317071
 40
0.3170731707317071
 40
0.3170731707317071
 40
0.3170731707317071
 40
0.3252032520325201
 40
0.3252032520325201
 40
0.3252032520325201
 40
0.3252032520325201
 40
0.3333333333333331
 40
0.3333333333333331
 40
0.3333333333333331
 40
0.3333333333333331
 40
0.3414634146341461
 40
0.3414634146341461
 40
0.3414634146341461
 40
0.3414634146341461
 40
0.3495934959349591
 40
0.3495934959349591
 40
0.3495934959349591
 40
0.3495934959349591
 40
0.3577235772357721
 40
0.3577235772357721
 40
0.3577235772357721
 40
0.3577235772357721
 40
0.3658536585365851
 40
0.3658536585365851
 40
0.3658536585365851
 40
0.3658536585365851
 40
0.3739837398373981
 40
0.3739837398373981
 40
0.3739837398373981
 40
0.3739837398373981
 40
0.3821138211382111
 40
0.3821138211382111
 40
0.3821138211382111
 40
0.3821138211382111
 40
0.3902439024390241
 40
0.3902439024390241
 40
0.3902439024390241
 40
0.3902439024390241
 40
0.3983739837398371
 40
0.3983739837398371
 40
0.3983739837398371
 40
0.3983739837398371
 40
0.4065040650406501
 40
0.4065040650406501
 40
0.4065040650406501
 40
0.4065040650406501
 40
0.4146341463414631
 40
0.4146341463414631
 40
0.4146341463414631
 40
0.4146341463414631
 40
0.4227642276422761
 40
0.4227642276422761
 40
0.4227642276422761
 40
0.4227642276422761
 40
0.4308943089430891
 40
0.4308943089430891
 40
0.4308943089430891
 40
0.4308943089430891
 40
0.4390243902439021
 40
0.4390243902439021
 40
0.4390243902439021
 40
0.4390243902439021
 40
0.447154471544715
 40
0.447154471544715
 40
0.447154471544715
 40
0.447154471544715
 40
0.455284552845528
 40
0.455284552845528
 40
0.455284552845528
 40
0.455284552845528
 40
0.463414634146341
 40
0.463414634146341
 40
0.463414634146341
 40
0.463414634146341
 40
0.471544715447154
 40
0.471544715447154
 40
0.471544715447154
 40
0.471544715447154
 40
0.479674796747967
 40
0.479674796747967
 40
0.479674796747967
 40
0.479674796747967
 40
0.48780487804878
 40
0.48780487804878
 40
0.48780487804878
 40
0.48780487804878
 40
0.495934959349593
 40
0.495934959349593
 40
0.495934959349593
 40
0.495934959349593
 40
0.504065040650406
 40
0.504065040650406
 40
0.504065040650406
 40
0.504065040650406
 40
0.5121951219512191
 40
0.5121951219512191
 40
0.5121951219512191
 40
0.5121951219512191
 40
0.5203252032520321
 40
0.5203252032520321
 40
0.5203252032520321
 40
0.5203252032520321
 40
0.5284552845528452
 40
0.5284552845528452
 40
0.5284552845528452
 40
0.5284552845528452
 40
0.5365853658536582
 40
0.5365853658536582
 40
0.5365853658536582
 40
0.5365853658536582
 40
0.5447154471544713
 40
0.5447154471544713
 40
0.5447154471544713
 40
0.5447154471544713
 40
0.5528455284552843
 40
0.5528455284552843
 40
0.5528455284552843
 40
0.5528455284552843
 40
0.5609756097560974
 40
0.5609756097560974
 40
0.5609756097560974
 40
0.5609756097560974
 40
0.5691056910569104
 40
0.5691056910569104
 40
0.5691056910569104
 40
0.5691056910569104
 40
0.5772357723577235
 40
0.5772357723577235
 40
0.5772357723577235
 40
0.5772357723577235
 40
0.5853658536585366
 40
0.5853658536585366
 40
0.5853658536585366
 40
0.5853658536585366
 40
0.5934959349593496
 40
0.5934959349593496
 40
0.5934959349593496
 40
0.5934959349593496
 40
0.6016260162601627
 40
0.6016260162601627
 40
0.6016260162601627
 40
0.6016260162601627
 40
0.6097560975609757
 40
0.6097560975609757
 40
0.6097560975609757
 40
0.6097560975609757
 40
0.6178861788617888
 40
0.6178861788617888
 40
0.6178861788617888
 40
0.6178861788617888
 40
0.6260162601626018
 40
0.6260162601626018
 40
0.6260162601626018
 40
0.6260162601626018
 40
0.6341463414634149
 40
0.6341463414634149
 40
0.6341463414634149
 40
0.6341463414634149
 40
0.6422764227642279
 40
0.6422764227642279
 40
0.6422764227642279
 40
0.6422764227642279
 40
0.650406504065041
 40
0.650406504065041
 40
0.650406504065041
 40
0.650406504065041
 40
0.658536585365854
 40
0.658536585365854
 40
0.658536585365854
 40
0.658536585365854
 40
0.6666666666666671
 40
0.6666666666666671
 40
0.6666666666666671
 40
0.6666666666666671
 40
0.6747967479674801
 40
0.6747967479674801
 40
0.6747967479674801
 40
0.6747967479674801
 40
0.6829268292682932
 40
0.6829268292682932
 40
0.6829268292682932
 40
0.6829268292682932
 40
0.6910569105691062
 40
0.6910569105691062
 40
0.6910569105691062
 40
0.6910569105691062
 40
0.6991869918699193
 40
0.6991869918699193
 40
0.6991869918699193
 40
0.6991869918699193
 40
0.7073170731707323
 40
0.7073170731707323
 40
0.7073170731707323
 40
0.7073170731707323
 40
0.7154471544715454
 40
0.7154471544715454
 40
0.7154471544715454
 40
0.7154471544715454
 40
0.7235772357723584
 40
0.7235772357723584
 40
0.7235772357723584
 40
0.7235772357723584
 40
0.7317073170731715
 40
0.7317073170731715
 40
0.7317073170731715
 40
0.7317073170731715
 40
0.7398373983739845
 40
0.7398373983739845
 40
0.7398373983739845
 40
0.7398373983739845
 40
0.7479674796747976
 40
0.7479674796747976
 40
0.7479674796747976
 40
0.7479674796747976
 40
0.7560975609756106
 40
0.7560975609756106
 40
0.7560975609756106
 40
0.7560975609756106
 40
0.7642276422764237
 40
0.7642276422764237
 40
0.7642276422764237
 40
0.7642276422764237
 40
0.7723577235772368
 40
0.7723577235772368
 40
0.7723577235772368
 40
0.7723577235772368
 40
0.7804878048780498
 40
0.7804878048780498
 40
0.7804878048780498
 40
0.7804878048780498
 40
0.7886178861788629
 40
0.7886178861788629
 40
0.7886178861788629
 40
0.7886178861788629
 40
0.7967479674796759
 40
0.7967479674796759
 40
0.7967479674796759
 40
0.7967479674796759
 40
0.804878048780489
 40
0.804878048780489
 40
0.804878048780489
 40
0.804878048780489
 40
0.813008130081302
 40
0.813008130081302
 40
0.813008130081302
 40
0.813008130081302
 40
0.8211382113821151
 40
0.8211382113821151
 40
0.8211382113821151
 40
0.8211382113821151
 40
0.8292682926829281
 40
0.8292682926829281
 40
0.8292682926829281
 40
0.8292682926829281
 40
0.8373983739837412
 40
0.8373983739837412
 40
0.8373983739837412
 40
0.8373983739837412
 40
0.8455284552845542
 40
0.8455284552845542
 40
0.8455284552845542
 40
0.8455284552845542
 40
0.8536585365853673
 40
0.8536585365853673
 40
0.8536585365853673
 40
0.8536585365853673
 40
0.8617886178861803
 40
0.8617886178861803
 40
0.8617886178861803
 40
0.8617886178861803
 40
0.8699186991869934
 40
0.8699186991869934
 40
0.8699186991869934
 40
0.8699186991869934
 40
0.8780487804878064
 40
0.8780487804878064
 40
0.8780487804878064
 40
0.8780487804878064
 40
0.8861788617886195
 40
0.8861788617886195
 40
0.8861788617886195
 40
0.8861788617886195
 40
0.8943089430894325
 40
0.8943089430894325
 40
0.8943089430894325
 40
0.8943089430894325
 40
0.9024390243902456
 40
0.9024390243902456
 40
0.9024390243902456
 40
0.9024390243902456
 40
0.9105691056910586
 40
0.9105691056910586
 40
0.9105691056910586
 40
0.9105691056910586
 40
0.9186991869918717
 40
0.9186991869918717
 40
0.9186991869918717
 40
0.9186991869918717
 40
0.9268292682926847
 40
0.9268292682926847
 40
0.9268292682926847
 40
0.9268292682926847
 40
0.9349593495934978
 40
0.9349593495934978
 40
0.9349593495934978
 40
0.9349593495934978
 40
0.9430894308943109
 40
0.9430894308943109
 40
0.9430894308943109
 40
0.9430894308943109
 40
0.9512195121951239
 40
0.9512195121951239
 40
0.9512195121951239
 40
0.9512195121951239
 40
0.959349593495937
 40
0.959349593495937
 40
0.959349593495937
 40
0.959349593495937
 40
0.96747967479675
 40
0.96747967479675
 40
0.96747967479675
 40
0.96747967479675
 40
0.9756097560975631
 40
0.9756097560975631
 40
0.9756097560975631
 40
0.9756097560975631
 40
0.9837398373983761
 40
0.9837398373983761
 40
0.9837398373983761
 40
0.9837398373983761
 40
0.9918699186991892
 40
0.9918699186991892
 40
0.9918699186991892
 40
0.9918699186991892
 40
1.0
 40
1.0
 40
1.0
 40
1.0
 10
-57.8365
 20
-4.1715
 30
0.0
 10
-57.8365
 20
-4.1715
 30
0.0
 10
-57.8365
 20
-0.7044
 30
0.0
 10
-57.8365
 20
-0.7044
 30
0.0
 10
-57.8365
 20
-0.7044
 30
0.0
 10
-57.8365
 20
-0.7044
 30
0.0
 10
-60.2763
 20
-0.7044
 30
0.0
 10
-60.2763
 20
-0.7044
 30
0.0
 10
-60.2763
 20
-0.7044
 30
0.0
 10
-60.2763
 20
-0.7044
 30
0.0
 10
-62.7161
 20
-0.7044
 30
0.0
 10
-62.7161
 20
-0.7044
 30
0.0
 10
-62.7161
 20
-0.7044
 30
0.0
 10
-62.7161
 20
-0.7044
 30
0.0
 10
-62.7161
 20
1.607
 30
0.0
 10
-62.7161
 20
1.607
 30
0.0
 10
-62.7161
 20
1.607
 30
0.0
 10
-62.7161
 20
1.607
 30
0.0
 10
-62.7161
 20
3.9184
 30
0.0
 10
-62.7161
 20
3.9184
 30
0.0
 10
-62.7161
 20
3.9184
 30
0.0
 10
-62.7161
 20
3.9184
 30
0.0
 10
-59.249
 20
3.9184
 30
0.0
 10
-59.249
 20
3.9184
 30
0.0
 10
-59.249
 20
3.9184
 30
0.0
 10
-59.249
 20
3.9184
 30
0.0
 10
-55.7819
 20
3.9184
 30
0.0
 10
-55.7819
 20
3.9184
 30
0.0
 10
-55.7819
 20
3.9184
 30
0.0
 10
-55.7819
 20
3.9184
 30
0.0
 10
-55.7819
 20
6.615
 30
0.0
 10
-55.7819
 20
6.615
 30
0.0
 10
-55.7819
 20
6.615
 30
0.0
 10
-55.7819
 20
6.615
 30
0.0
 10
-55.7819
 20
9.3117
 30
0.0
 10
-55.7819
 20
9.3117
 30
0.0
 10
-55.7819
 20
9.3117
 30
0.0
 10
-55.7819
 20
9.3117
 30
0.0
 10
-59.249
 20
9.3117
 30
0.0
 10
-59.249
 20
9.3117
 30
0.0
 10
-59.249
 20
9.3117
 30
0.0
 10
-59.249
 20
9.3117
 30
0.0
 10
-62.7161
 20
9.3117
 30
0.0
 10
-62.7161
 20
9.3117
 30
0.0
 10
-62.7161
 20
9.3117
 30
0.0
 10
-62.7161
 20
9.3117
 30
0.0
 10
-62.7161
 20
11.6231
 30
0.0
 10
-62.7161
 20
11.6231
 30
0.0
 10
-62.7161
 20
11.6231
 30
0.0
 10
-62.7161
 20
11.6231
 30
0.0
 10
-62.7161
 20
13.9345
 30
0.0
 10
-62.7161
 20
13.9345
 30
0.0
 10
-62.7161
 20
13.9345
 30
0.0
 10
-62.7161
 20
13.9345
 30
0.0
 10
-59.249
 20
13.9345
 30
0.0
 10
-59.249
 20
13.9345
 30
0.0
 10
-59.249
 20
13.9345
 30
0.0
 10
-59.249
 20
13.9345
 30
0.0
 10
-55.7819
 20
13.9345
 30
0.0
 10
-55.7819
 20
13.9345
 30
0.0
 10
-55.7819
 20
13.9345
 30
0.0
 10
-55.7819
 20
13.9345
 30
0.0
 10
-55.7819
 20
16.6311
 30
0.0
 10
-55.7819
 20
16.6311
 30
0.0
 10
-55.7819
 20
16.6311
 30
0.0
 10
-55.7819
 20
16.6311
 30
0.0
 10
-55.7819
 20
19.3277
 30
0.0
 10
-55.7819
 20
19.3277
 30
0.0
 10
-55.7819
 20
19.3277
 30
0.0
 10
-55.7819
 20
19.3277
 30
0.0
 10
-59.249
 20
19.3277
 30
0.0
 10
-59.249
 20
19.3277
 30
0.0
 10
-59.249
 20
19.3277
 30
0.0
 10
-59.249
 20
19.3277
 30
0.0
 10
-62.7161
 20
19.3277
 30
0.0
 10
-62.7161
 20
19.3277
 30
0.0
 10
-62.7161
 20
19.3277
 30
0.0
 10
-62.7161
 20
19.3277
 30
0.0
 10
-62.7161
 20
21.6391
 30
0.0
 10
-62.7161
 20
21.6391
 30
0.0
 10
-62.7161
 20
21.6391
 30
0.0
 10
-62.7161
 20
21.6391
 30
0.0
 10
-62.7161
 20
23.9505
 30
0.0
 10
-62.7161
 20
23.9505
 30
0.0
 10
-62.7161
 20
23.9505
 30
0.0
 10
-62.7161
 20
23.9505
 30
0.0
 10
-59.249
 20
23.9505
 30
0.0
 10
-59.249
 20
23.9505
 30
0.0
 10
-59.249
 20
23.9505
 30
0.0
 10
-59.249
 20
23.9505
 30
0.0
 10
-55.7819
 20
23.9505
 30
0.0
 10
-55.7819
 20
23.9505
 30
0.0
 10
-55.7819
 20
23.9505
 30
0.0
 10
-55.7819
 20
23.9505
 30
0.0
 10
-55.7819
 20
26.6471
 30
0.0
 10
-55.7819
 20
26.6471
 30
0.0
 10
-55.7819
 20
26.6471
 30
0.0
 10
-55.7819
 20
26.6471
 30
0.0
 10
-55.7819
 20
29.3438
 30
0.0
 10
-55.7819
 20
29.3438
 30
0.0
 10
-55.7819
 20
29.3438
 30
0.0
 10
-55.7819
 20
29.3438
 30
0.0
 10
-59.249
 20
29.3438
 30
0.0
 10
-59.249
 20
29.3438
 30
0.0
 10
-59.249
 20
29.3438
 30
0.0
 10
-59.249
 20
29.3438
 30
0.0
 10
-62.7161
 20
29.3438
 30
0.0
 10
-62.7161
 20
29.3438
 30
0.0
 10
-62.7161
 20
29.3438
 30
0.0
 10
-62.7161
 20
29.3438
 30
0.0
 10
-62.7161
 20
31.6552
 30
0.0
 10
-62.7161
 20
31.6552
 30
0.0
 10
-62.7161
 20
31.6552
 30
0.0
 10
-62.7161
 20
31.6552
 30
0.0
 10
-62.7161
 20
33.9666
 30
0.0
 10
-62.7161
 20
33.9666
 30
0.0
 10
-62.7161
 20
33.9666
 30
0.0
 10
-62.7161
 20
33.9666
 30
0.0
 10
-59.249
 20
33.9666
 30
0.0
 10
-59.249
 20
33.9666
 30
0.0
 10
-59.249
 20
33.9666
 30
0.0
 10
-59.249
 20
33.9666
 30
0.0
 10
-55.7819
 20
33.9666
 30
0.0
 10
-55.7819
 20
33.9666
 30
0.0
 10
-55.7819
 20
33.9666
 30
0.0
 10
-55.7819
 20
33.9666
 30
0.0
 10
-55.7819
 20
36.6632
 30
0.0
 10
-55.7819
 20
36.6632
 30
0.0
 10
-55.7819
 20
36.6632
 30
0.0
 10
-55.7819
 20
36.6632
 30
0.0
 10
-55.7819
 20
39.3598
 30
0.0
 10
-55.7819
 20
39.3598
 30
0.0
 10
-55.7819
 20
39.3598
 30
0.0
 10
-55.7819
 20
39.3598
 30
0.0
 10
-59.249
 20
39.3598
 30
0.0
 10
-59.249
 20
39.3598
 30
0.0
 10
-59.249
 20
39.3598
 30
0.0
 10
-59.249
 20
39.3598
 30
0.0
 10
-62.7161
 20
39.3598
 30
0.0
 10
-62.7161
 20
39.3598
 30
0.0
 10
-62.7161
 20
39.3598
 30
0.0
 10
-62.7161
 20
39.3598
 30
0.0
 10
-62.7161
 20
45.6519
 30
0.0
 10
-62.7161
 20
45.6519
 30
0.0
 10
-62.7161
 20
45.6519
 30
0.0
 10
-62.7161
 20
45.6519
 30
0.0
 10
-62.7161
 20
51.9441
 30
0.0
 10
-62.7161
 20
51.9441
 30
0.0
 10
-62.7161
 20
51.9441
 30
0.0
 10
-62.7161
 20
51.9441
 30
0.0
 10
-29.9713
 20
51.9441
 30
0.0
 10
-29.9713
 20
51.9441
 30
0.0
 10
-29.9713
 20
51.9441
 30
0.0
 10
-29.9713
 20
51.9441
 30
0.0
 10
2.7735
 20
51.9441
 30
0.0
 10
2.7735
 20
51.9441
 30
0.0
 10
2.7735
 20
51.9441
 30
0.0
 10
2.7735
 20
51.9441
 30
0.0
 10
2.7735
 20
45.6519
 30
0.0
 10
2.7735
 20
45.6519
 30
0.0
 10
2.7735
 20
45.6519
 30
0.0
 10
2.7735
 20
45.6519
 30
0.0
 10
2.7735
 20
39.3598
 30
0.0
 10
2.7735
 20
39.3598
 30
0.0
 10
2.7735
 20
39.3598
 30
0.0
 10
2.7735
 20
39.3598
 30
0.0
 10
-0.6936
 20
39.3598
 30
0.0
 10
-0.6936
 20
39.3598
 30
0.0
 10
-0.6936
 20
39.3598
 30
0.0
 10
-0.6936
 20
39.3598
 30
0.0
 10
-4.1607
 20
39.3598
 30
0.0
 10
-4.1607
 20
39.3598
 30
0.0
 10
-4.1607
 20
39.3598
 30
0.0
 10
-4.1607
 20
39.3598
 30
0.0
 10
-4.1607
 20
36.6632
 30
0.0
 10
-4.1607
 20
36.6632
 30
0.0
 10
-4.1607
 20
36.6632
 30
0.0
 10
-4.1607
 20
36.6632
 30
0.0
 10
-4.1607
 20
33.9666
 30
0.0
 10
-4.1607
 20
33.9666
 30
0.0
 10
-4.1607
 20
33.9666
 30
0.0
 10
-4.1607
 20
33.9666
 30
0.0
 10
-0.6936
 20
33.9666
 30
0.0
 10
-0.6936
 20
33.9666
 30
0.0
 10
-0.6936
 20
33.9666
 30
0.0
 10
-0.6936
 20
33.9666
 30
0.0
 10
2.7735
 20
33.9666
 30
0.0
 10
2.7735
 20
33.9666
 30
0.0
 10
2.7735
 20
33.9666
 30
0.0
 10
2.7735
 20
33.9666
 30
0.0
 10
2.7735
 20
31.6552
 30
0.0
 10
2.7735
 20
31.6552
 30
0.0
 10
2.7735
 20
31.6552
 30
0.0
 10
2.7735
 20
31.6552
 30
0.0
 10
2.7735
 20
29.3438
 30
0.0
 10
2.7735
 20
29.3438
 30
0.0
 10
2.7735
 20
29.3438
 30
0.0
 10
2.7735
 20
29.3438
 30
0.0
 10
-0.6936
 20
29.3438
 30
0.0
 10
-0.6936
 20
29.3438
 30
0.0
 10
-0.6936
 20
29.3438
 30
0.0
 10
-0.6936
 20
29.3438
 30
0.0
 10
-4.1607
 20
29.3438
 30
0.0
 10
-4.1607
 20
29.3438
 30
0.0
 10
-4.1607
 20
29.3438
 30
0.0
 10
-4.1607
 20
29.3438
 30
0.0
 10
-4.1607
 20
26.6471
 30
0.0
 10
-4.1607
 20
26.6471
 30
0.0
 10
-4.1607
 20
26.6471
 30
0.0
 10
-4.1607
 20
26.6471
 30
0.0
 10
-4.1607
 20
23.9505
 30
0.0
 10
-4.1607
 20
23.9505
 30
0.0
 10
-4.1607
 20
23.9505
 30
0.0
 10
-4.1607
 20
23.9505
 30
0.0
 10
-0.6936
 20
23.9505
 30
0.0
 10
-0.6936
 20
23.9505
 30
0.0
 10
-0.6936
 20
23.9505
 30
0.0
 10
-0.6936
 20
23.9505
 30
0.0
 10
2.7735
 20
23.9505
 30
0.0
 10
2.7735
 20
23.9505
 30
0.0
 10
2.7735
 20
23.9505
 30
0.0
 10
2.7735
 20
23.9505
 30
0.0
 10
2.7735
 20
21.6391
 30
0.0
 10
2.7735
 20
21.6391
 30
0.0
 10
2.7735
 20
21.6391
 30
0.0
 10
2.7735
 20
21.6391
 30
0.0
 10
2.7735
 20
19.3277
 30
0.0
 10
2.7735
 20
19.3277
 30
0.0
 10
2.7735
 20
19.3277
 30
0.0
 10
2.7735
 20
19.3277
 30
0.0
 10
-0.6936
 20
19.3277
 30
0.0
 10
-0.6936
 20
19.3277
 30
0.0
 10
-0.6936
 20
19.3277
 30
0.0
 10
-0.6936
 20
19.3277
 30
0.0
 10
-4.1607
 20
19.3277
 30
0.0
 10
-4.1607
 20
19.3277
 30
0.0
 10
-4.1607
 20
19.3277
 30
0.0
 10
-4.1607
 20
19.3277
 30
0.0
 10
-4.1607
 20
16.6311
 30
0.0
 10
-4.1607
 20
16.6311
 30
0.0
 10
-4.1607
 20
16.6311
 30
0.0
 10
-4.1607
 20
16.6311
 30
0.0
 10
-4.1607
 20
13.9345
 30
0.0
 10
-4.1607
 20
13.9345
 30
0.0
 10
-4.1607
 20
13.9345
 30
0.0
 10
-4.1607
 20
13.9345
 30
0.0
 10
-0.6936
 20
13.9345
 30
0.0
 10
-0.6936
 20
13.9345
 30
0.0
 10
-0.6936
 20
13.9345
 30
0.0
 10
-0.6936
 20
13.9345
 30
0.0
 10
2.7735
 20
13.9345
 30
0.0
 10
2.7735
 20
13.9345
 30
0.0
 10
2.7735
 20
13.9345
 30
0.0
 10
2.7735
 20
13.9345
 30
0.0
 10
2.7735
 20
11.6231
 30
0.0
 10
2.7735
 20
11.6231
 30
0.0
 10
2.7735
 20
11.6231
 30
0.0
 10
2.7735
 20
11.6231
 30
0.0
 10
2.7735
 20
9.3117
 30
0.0
 10
2.7735
 20
9.3117
 30
0.0
 10
2.7735
 20
9.3117
 30
0.0
 10
2.7735
 20
9.3117
 30
0.0
 10
-0.6936
 20
9.3117
 30
0.0
 10
-0.6936
 20
9.3117
 30
0.0
 10
-0.6936
 20
9.3117
 30
0.0
 10
-0.6936
 20
9.3117
 30
0.0
 10
-4.1607
 20
9.3117
 30
0.0
 10
-4.1607
 20
9.3117
 30
0.0
 10
-4.1607
 20
9.3117
 30
0.0
 10
-4.1607
 20
9.3117
 30
0.0
 10
-4.1607
 20
6.615
 30
0.0
 10
-4.1607
 20
6.615
 30
0.0
 10
-4.1607
 20
6.615
 30
0.0
 10
-4.1607
 20
6.615
 30
0.0
 10
-4.1607
 20
3.9184
 30
0.0
 10
-4.1607
 20
3.9184
 30
0.0
 10
-4.1607
 20
3.9184
 30
0.0
 10
-4.1607
 20
3.9184
 30
0.0
 10
-0.6936
 20
3.9184
 30
0.0
 10
-0.6936
 20
3.9184
 30
0.0
 10
-0.6936
 20
3.9184
 30
0.0
 10
-0.6936
 20
3.9184
 30
0.0
 10
2.7735
 20
3.9184
 30
0.0
 10
2.7735
 20
3.9184
 30
0.0
 10
2.7735
 20
3.9184
 30
0.0
 10
2.7735
 20
3.9184
 30
0.0
 10
2.7735
 20
1.0291
 30
0.0
 10
2.7735
 20
1.0291
 30
0.0
 10
2.7735
 20
1.0291
 30
0.0
 10
2.7735
 20
1.0291
 30
0.0
 10
2.7735
 20
-0.4155
 30
0.0
 10
2.7735
 20
-0.4155
 30
0.0
 10
2.7735
 20
-0.4155
 30
0.0
 10
2.7735
 20
-0.4155
 30
0.0
 10
2.7735
 20
-0.6876
 30
0.0
 10
2.7735
 20
-0.6876
 30
0.0
 10
2.7735
 20
-0.6876
 30
0.0
 10
2.7735
 20
-0.6876
 30
0.0
 10
2.2598
 20
-0.7044
 30
0.0
 10
2.2598
 20
-0.7044
 30
0.0
 10
2.2598
 20
-0.7044
 30
0.0
 10
2.2598
 20
-0.7044
 30
0.0
 10
-0.4368
 20
-0.7044
 30
0.0
 10
-0.4368
 20
-0.7044
 30
0.0
 10
-0.4368
 20
-0.7044
 30
0.0
 10
-0.4368
 20
-0.7044
 30
0.0
 10
-3.1334
 20
-0.7044
 30
0.0
 10
-3.1334
 20
-0.7044
 30
0.0
 10
-3.1334
 20
-0.7044
 30
0.0
 10
-3.1334
 20
-0.7044
 30
0.0
 10
-3.1334
 20
-4.1715
 30
0.0
 10
-3.1334
 20
-4.1715
 30
0.0
 10
-3.1334
 20
-4.1715
 30
0.0
 10
-3.1334
 20
-4.1715
 30
0.0
 10
-3.1334
 20
-7.6386
 30
0.0
 10
-3.1334
 20
-7.6386
 30
0.0
 10
-3.1334
 20
-7.6386
 30
0.0
 10
-3.1334
 20
-7.6386
 30
0.0
 10
-5.4448
 20
-7.6386
 30
0.0
 10
-5.4448
 20
-7.6386
 30
0.0
 10
-5.4448
 20
-7.6386
 30
0.0
 10
-5.4448
 20
-7.6386
 30
0.0
 10
-7.7562
 20
-7.6386
 30
0.0
 10
-7.7562
 20
-7.6386
 30
0.0
 10
-7.7562
 20
-7.6386
 30
0.0
 10
-7.7562
 20
-7.6386
 30
0.0
 10
-7.7562
 20
-4.1715
 30
0.0
 10
-7.7562
 20
-4.1715
 30
0.0
 10
-7.7562
 20
-4.1715
 30
0.0
 10
-7.7562
 20
-4.1715
 30
0.0
 10
-7.7562
 20
-0.7044
 30
0.0
 10
-7.7562
 20
-0.7044
 30
0.0
 10
-7.7562
 20
-0.7044
 30
0.0
 10
-7.7562
 20
-0.7044
 30
0.0
 10
-10.4528
 20
-0.7044
 30
0.0
 10
-10.4528
 20
-0.7044
 30
0.0
 10
-10.4528
 20
-0.7044
 30
0.0
 10
-10.4528
 20
-0.7044
 30
0.0
 10
-13.1495
 20
-0.7044
 30
0.0
 10
-13.1495
 20
-0.7044
 30
0.0
 10
-13.1495
 20
-0.7044
 30
0.0
 10
-13.1495
 20
-0.7044
 30
0.0
 10
-13.1495
 20
-4.1715
 30
0.0
 10
-13.1495
 20
-4.1715
 30
0.0
 10
-13.1495
 20
-4.1715
 30
0.0
 10
-13.1495
 20
-4.1715
 30
0.0
 10
-13.1495
 20
-7.6386
 30
0.0
 10
-13.1495
 20
-7.6386
 30
0.0
 10
-13.1495
 20
-7.6386
 30
0.0
 10
-13.1495
 20
-7.6386
 30
0.0
 10
-15.4609
 20
-7.6386
 30
0.0
 10
-15.4609
 20
-7.6386
 30
0.0
 10
-15.4609
 20
-7.6386
 30
0.0
 10
-15.4609
 20
-7.6386
 30
0.0
 10
-17.7723
 20
-7.6386
 30
0.0
 10
-17.7723
 20
-7.6386
 30
0.0
 10
-17.7723
 20
-7.6386
 30
0.0
 10
-17.7723
 20
-7.6386
 30
0.0
 10
-17.7723
 20
-4.1715
 30
0.0
 10
-17.7723
 20
-4.1715
 30
0.0
 10
-17.7723
 20
-4.1715
 30
0.0
 10
-17.7723
 20
-4.1715
 30
0.0
 10
-17.7723
 20
-0.7044
 30
0.0
 10
-17.7723
 20
-0.7044
 30
0.0
 10
-17.7723
 20
-0.7044
 30
0.0
 10
-17.7723
 20
-0.7044
 30
0.0
 10
-20.4689
 20
-0.7044
 30
0.0
 10
-20.4689
 20
-0.7044
 30
0.0
 10
-20.4689
 20
-0.7044
 30
0.0
 10
-20.4689
 20
-0.7044
 30
0.0
 10
-23.1655
 20
-0.7044
 30
0.0
 10
-23.1655
 20
-0.7044
 30
0.0
 10
-23.1655
 20
-0.7044
 30
0.0
 10
-23.1655
 20
-0.7044
 30
0.0
 10
-23.1655
 20
-4.1715
 30
0.0
 10
-23.1655
 20
-4.1715
 30
0.0
 10
-23.1655
 20
-4.1715
 30
0.0
 10
-23.1655
 20
-4.1715
 30
0.0
 10
-23.1655
 20
-7.6386
 30
0.0
 10
-23.1655
 20
-7.6386
 30
0.0
 10
-23.1655
 20
-7.6386
 30
0.0
 10
-23.1655
 20
-7.6386
 30
0.0
 10
-25.4769
 20
-7.6386
 30
0.0
 10
-25.4769
 20
-7.6386
 30
0.0
 10
-25.4769
 20
-7.6386
 30
0.0
 10
-25.4769
 20
-7.6386
 30
0.0
 10
-27.7883
 20
-7.6386
 30
0.0
 10
-27.7883
 20
-7.6386
 30
0.0
 10
-27.7883
 20
-7.6386
 30
0.0
 10
-27.7883
 20
-7.6386
 30
0.0
 10
-27.7883
 20
-4.1715
 30
0.0
 10
-27.7883
 20
-4.1715
 30
0.0
 10
-27.7883
 20
-4.1715
 30
0.0
 10
-27.7883
 20
-4.1715
 30
0.0
 10
-27.7883
 20
-0.7044
 30
0.0
 10
-27.7883
 20
-0.7044
 30
0.0
 10
-27.7883
 20
-0.7044
 30
0.0
 10
-27.7883
 20
-0.7044
 30
0.0
 10
-30.4849
 20
-0.7044
 30
0.0
 10
-30.4849
 20
-0.7044
 30
0.0
 10
-30.4849
 20
-0.7044
 30
0.0
 10
-30.4849
 20
-0.7044
 30
0.0
 10
-33.1816
 20
-0.7044
 30
0.0
 10
-33.1816
 20
-0.7044
 30
0.0
 10
-33.1816
 20
-0.7044
 30
0.0
 10
-33.1816
 20
-0.7044
 30
0.0
 10
-33.1816
 20
-4.1715
 30
0.0
 10
-33.1816
 20
-4.1715
 30
0.0
 10
-33.1816
 20
-4.1715
 30
0.0
 10
-33.1816
 20
-4.1715
 30
0.0
 10
-33.1816
 20
-7.6386
 30
0.0
 10
-33.1816
 20
-7.6386
 30
0.0
 10
-33.1816
 20
-7.6386
 30
0.0
 10
-33.1816
 20
-7.6386
 30
0.0
 10
-35.493
 20
-7.6386
 30
0.0
 10
-35.493
 20
-7.6386
 30
0.0
 10
-35.493
 20
-7.6386
 30
0.0
 10
-35.493
 20
-7.6386
 30
0.0
 10
-37.8044
 20
-7.6386
 30
0.0
 10
-37.8044
 20
-7.6386
 30
0.0
 10
-37.8044
 20
-7.6386
 30
0.0
 10
-37.8044
 20
-7.6386
 30
0.0
 10
-37.8044
 20
-4.1715
 30
0.0
 10
-37.8044
 20
-4.1715
 30
0.0
 10
-37.8044
 20
-4.1715
 30
0.0
 10
-37.8044
 20
-4.1715
 30
0.0
 10
-37.8044
 20
-0.7044
 30
0.0
 10
-37.8044
 20
-0.7044
 30
0.0
 10
-37.8044
 20
-0.7044
 30
0.0
 10
-37.8044
 20
-0.7044
 30
0.0
 10
-40.501
 20
-0.7044
 30
0.0
 10
-40.501
 20
-0.7044
 30
0.0
 10
-40.501
 20
-0.7044
 30
0.0
 10
-40.501
 20
-0.7044
 30
0.0
 10
-43.1976
 20
-0.7044
 30
0.0
 10
-43.1976
 20
-0.7044
 30
0.0
 10
-43.1976
 20
-0.7044
 30
0.0
 10
-43.1976
 20
-0.7044
 30
0.0
 10
-43.1976
 20
-4.1715
 30
0.0
 10
-43.1976
 20
-4.1715
 30
0.0
 10
-43.1976
 20
-4.1715
 30
0.0
 10
-43.1976
 20
-4.1715
 30
0.0
 10
-43.1976
 20
-7.6386
 30
0.0
 10
-43.1976
 20
-7.6386
 30
0.0
 10
-43.1976
 20
-7.6386
 30
0.0
 10
-43.1976
 20
-7.6386
 30
0.0
 10
-45.509
 20
-7.6386
 30
0.0
 10
-45.509
 20
-7.6386
 30
0.0
 10
-45.509
 20
-7.6386
 30
0.0
 10
-45.509
 20
-7.6386
 30
0.0
 10
-47.8204
 20
-7.6386
 30
0.0
 10
-47.8204
 20
-7.6386
 30
0.0
 10
-47.8204
 20
-7.6386
 30
0.0
 10
-47.8204
 20
-7.6386
 30
0.0
 10
-47.8204
 20
-4.1715
 30
0.0
 10
-47.8204
 20
-4.1715
 30
0.0
 10
-47.8204
 20
-4.1715
 30
0.0
 10
-47.8204
 20
-4.1715
 30
0.0
 10
-47.8204
 20
-0.7044
 30
0.0
 10
-47.8204
 20
-0.7044
 30
0.0
 10
-47.8204
 20
-0.7044
 30
0.0
 10
-47.8204
 20
-0.7044
 30
0.0
 10
-50.3886
 20
-0.7044
 30
0.0
 10
-50.3886
 20
-0.7044
 30
0.0
 10
-50.3886
 20
-0.7044
 30
0.0
 10
-50.3886
 20
-0.7044
 30
0.0
 10
-52.9569
 20
-0.7044
 30
0.0
 10
-52.9569
 20
-0.7044
 30
0.0
 10
-52.9569
 20
-0.7044
 30
0.0
 10
-52.9569
 20
-0.7044
 30
0.0
 10
-52.9569
 20
-4.1715
 30
0.0
 10
-52.9569
 20
-4.1715
 30
0.0
 10
-52.9569
 20
-4.1715
 30
0.0
 10
-52.9569
 20
-4.1715
 30
0.0
 10
-52.9569
 20
-7.6386
 30
0.0
 10
-52.9569
 20
-7.6386
 30
0.0
 10
-52.9569
 20
-7.6386
 30
0.0
 10
-52.9569
 20
-7.6386
 30
0.0
 10
-55.3967
 20
-7.6386
 30
0.0
 10
-55.3967
 20
-7.6386
 30
0.0
 10
-55.3967
 20
-7.6386
 30
0.0
 10
-55.3967
 20
-7.6386
 30
0.0
 10
-57.8365
 20
-7.6386
 30
0.0
 10
-57.8365
 20
-7.6386
 30
0.0
 10
-57.8365
 20
-7.6386
 30
0.0
 10
-57.8365
 20
-7.6386
 30
0.0
 10
-57.8365
 20
-4.1715
 30
0.0
 10
-57.8365
 20
-4.1715
 30
0.0
 10
-57.8365
 20
-4.1715
 30
0.0
 10
-57.8365
 20
-4.1715
 30
0.0
 10
-57.8365
 20
-4.1715
 30
0.0
 10
-57.8365
 20
-4.1715
 30
0.0
  0
SPLINE
  5
62
330
1F
100
AcDbEntity
  8
LAYER_1
 62
    22
100
AcDbSpline
210
0.0
220
0.0
230
1.0
 70
    11
 71
     3
 72
    20
 73
    16
 74
     0
 42
0.0000000001
 43
0.0000000001
 40
0.0
 40
0.0
 40
0.0
 40
0.0
 40
0.25
 40
0.25
 40
0.25
 40
0.25
 40
0.5
 40
0.5
 40
0.5
 40
0.5
 40
0.75
 40
0.75
 40
0.75
 40
0.75
 40
1.0
 40
1.0
 40
1.0
 40
1.0
 10
-50.9713
 20
51.9442
 30
0.0
 10
-50.9713
 20
51.9442
 30
0.0
 10
-8.9713
 20
51.9442
 30
0.0
 10
-8.9713
 20
51.9442
 30
0.0
 10
-8.9713
 20
51.9442
 30
0.0
 10
-8.9713
 20
51.9442
 30
0.0
 10
-8.9713
 20
9.9442
 30
0.0
 10
-8.9713
 20
9.9442
 30
0.0
 10
-8.9713
 20
9.9442
 30
0.0
 10
-8.9713
 20
9.9442
 30
0.0
 10
-50.9713
 20
9.9442
 30
0.0
 10
-50.9713
 20
9.9442
 30
0.0
 10
-50.9713
 20
9.9442
 30
0.0
 10
-50.9713
 20
9.9442
 30
0.0
 10
-50.9713
 20
51.9442
 30
0.0
 10
-50.9713
 20
51.9442
 30
0.0
  0
SPLINE
  5
63
330
1F
100
AcDbEntity
  8
LAYER_1
 62
    22
100
AcDbSpline
210
0.0
220
0.0
230
1.0
 70
    11
 71
     3
 72
    20
 73
    16
 74
     0
 42
0.0000000001
 43
0.0000000001
 40
0.0
 40
0.0
 40
0.0
 40
0.0
 40
0.25
 40
0.25
 40
0.25
 40
0.25
 40
0.5
 40
0.5
 40
0.5
 40
0.5
 40
0.75
 40
0.75
 40
0.75
 40
0.75
 40
1.0
 40
1.0
 40
1.0
 40
1.0
 10
-14.4713
 20
47.8257
 30
0.0
 10
-13.7084
 20
47.8257
 30
0.0
 10
-13.0898
 20
47.2071
 30
0.0
 10
-13.0898
 20
46.4442
 30
0.0
 10
-13.0898
 20
46.4442
 30
0.0
 10
-13.0898
 20
45.6813
 30
0.0
 10
-13.7084
 20
45.0627
 30
0.0
 10
-14.4713
 20
45.0627
 30
0.0
 10
-14.4713
 20
45.0627
 30
0.0
 10
-15.2342
 20
45.0627
 30
0.0
 10
-15.8528
 20
45.6813
 30
0.0
 10
-15.8528
 20
46.4442
 30
0.0
 10
-15.8528
 20
46.4442
 30
0.0
 10
-15.8528
 20
47.2071
 30
0.0
 10
-15.2342
 20
47.8257
 30
0.0
 10
-14.4713
 20
47.8257
 30
0.0
  0
SPLINE
  5
64
330
1F
100
AcDbEntity
  8
LAYER_1
 62
    22
100
AcDbSpline
210
0.0
220
0.0
230
1.0
 70
    11
 71
     3
 72
    20
 73
    16
 74
     0
 42
0.0000000001
 43
0.0000000001
 40
0.0
 40
0.0
 40
0.0
 40
0.0
 40
0.25
 40
0.25
 40
0.25
 40
0.25
 40
0.5
 40
0.5
 40
0.5
 40
0.5
 40
0.75
 40
0.75
 40
0.75
 40
0.75
 40
1.0
 40
1.0
 40
1.0
 40
1.0
 10
-45.4713
 20
47.8257
 30
0.0
 10
-44.7084
 20
47.8257
 30
0.0
 10
-44.0898
 20
47.2071
 30
0.0
 10
-44.0898
 20
46.4442
 30
0.0
 10
-44.0898
 20
46.4442
 30
0.0
 10
-44.0898
 20
45.6813
 30
0.0
 10
-44.7084
 20
45.0627
 30
0.0
 10
-45.4713
 20
45.0627
 30
0.0
 10
-45.4713
 20
45.0627
 30
0.0
 10
-46.2342
 20
45.0627
 30
0.0
 10
-46.8528
 20
45.6813
 30
0.0
 10
-46.8528
 20
46.4442
 30
0.0
 10
-46.8528
 20
46.4442
 30
0.0
 10
-46.8528
 20
47.2071
 30
0.0
 10
-46.2342
 20
47.8257
 30
0.0
 10
-45.4713
 20
47.8257
 30
0.0
  0
SPLINE
  5
65
330
1F
100
AcDbEntity
  8
LAYER_1
 62
    22
100
AcDbSpline
210
0.0
220
0.0
230
1.0
 70
    11
 71
     3
 72
    20
 73
    16
 74
     0
 42
0.0000000001
 43
0.0000000001
 40
0.0
 40
0.0
 40
0.0
 40
0.0
 40
0.25
 40
0.25
 40
0.25
 40
0.25
 40
0.5
 40
0.5
 40
0.5
 40
0.5
 40
0.75
 40
0.75
 40
0.75
 40
0.75
 40
1.0
 40
1.0
 40
1.0
 40
1.0
 10
-14.4713
 20
16.8257
 30
0.0
 10
-13.7084
 20
16.8257
 30
0.0
 10
-13.0898
 20
16.2071
 30
0.0
 10
-13.0898
 20
15.4442
 30
0.0
 10
-13.0898
 20
15.4442
 30
0.0
 10
-13.0898
 20
14.6813
 30
0.0
 10
-13.7084
 20
14.0627
 30
0.0
 10
-14.4713
 20
14.0627
 30
0.0
 10
-14.4713
 20
14.0627
 30
0.0
 10
-15.2342
 20
14.0627
 30
0.0
 10
-15.8528
 20
14.6813
 30
0.0
 10
-15.8528
 20
15.4442
 30
0.0
 10
-15.8528
 20
15.4442
 30
0.0
 10
-15.8528
 20
16.2071
 30
0.0
 10
-15.2342
 20
16.8257
 30
0.0
 10
-14.4713
 20
16.8257
 30
0.0
  0
SPLINE
  5
66
330
1F
100
AcDbEntity
  8
LAYER_1
 62
    22
100
AcDbSpline
210
0.0
220
0.0
230
1.0
 70
    11
 71
     3
 72
    20
 73
    16
 74
     0
 42
0.0000000001
 43
0.0000000001
 40
0.0
 40
0.0
 40
0.0
 40
0.0
 40
0.25
 40
0.25
 40
0.25
 40
0.25
 40
0.5
 40
0.5
 40
0.5
 40
0.5
 40
0.75
 40
0.75
 40
0.75
 40
0.75
 40
1.0
 40
1.0
 40
1.0
 40
1.0
 10
-45.4713
 20
16.8257
 30
0.0
 10
-44.7084
 20
16.8257
 30
0.0
 10
-44.0898
 20
16.2071
 30
0.0
 10
-44.0898
 20
15.4442
 30
0.0
 10
-44.0898
 20
15.4442
 30
0.0
 10
-44.0898
 20
14.6813
 30
0.0
 10
-44.7084
 20
14.0627
 30
0.0
 10
-45.4713
 20
14.0627
 30
0.0
 10
-45.4713
 20
14.0627
 30
0.0
 10
-46.2342
 20
14.0627
 30
0.0
 10
-46.8528
 20
14.6813
 30
0.0
 10
-46.8528
 20
15.4442
 30
0.0
 10
-46.8528
 20
15.4442
 30
0.0
 10
-46.8528
 20
16.2071
 30
0.0
 10
-46.2342
 20
16.8257
 30
0.0
 10
-45.4713
 20
16.8257
 30
0.0
  0
SPLINE
  5
67
330
1F
100
AcDbEntity
  8
LAYER_1
 62
    22
100
AcDbSpline
210
0.0
220
0.0
230
1.0
 70
    11
 71
     3
 72
    20
 73
    16
 74
     0
 42
0.0000000001
 43
0.0000000001
 40
0.0
 40
0.0
 40
0.0
 40
0.0
 40
0.25
 40
0.25
 40
0.25
 40
0.25
 40
0.5
 40
0.5
 40
0.5
 40
0.5
 40
0.75
 40
0.75
 40
0.75
 40
0.75
 40
1.0
 40
1.0
 40
1.0
 40
1.0
 10
-29.9713
 20
42.1942
 30
0.0
 10
-23.7591
 20
42.1942
 30
0.0
 10
-18.7213
 20
37.1564
 30
0.0
 10
-18.7213
 20
30.9442
 30
0.0
 10
-18.7213
 20
30.9442
 30
0.0
 10
-18.7213
 20
24.732
 30
0.0
 10
-23.7591
 20
19.6942
 30
0.0
 10
-29.9713
 20
19.6942
 30
0.0
 10
-29.9713
 20
19.6942
 30
0.0
 10
-36.1835
 20
19.6942
 30
0.0
 10
-41.2213
 20
24.732
 30
0.0
 10
-41.2213
 20
30.9442
 30
0.0
 10
-41.2213
 20
30.9442
 30
0.0
 10
-41.2213
 20
37.1564
 30
0.0
 10
-36.1835
 20
42.1942
 30
0.0
 10
-29.9713
 20
42.1942
 30
0.0
  0
SPLINE
  5
68
330
1F
100
AcDbEntity
  8
LAYER_1
100
AcDbSpline
210
0.0
220
0.0
230
1.0
 70
     8
 71
     3
 72
     8
 73
     4
 74
     0
 42
0.0000000001
 43
0.0000000001
 40
0.0
 40
0.0
 40
0.0
 40
0.0
 40
1.0
 40
1.0
 40
1.0
 40
1.0
 10
-13.3788
 20
65.7181
 30
0.0
 10
-17.8308
 20
70.1823
 30
0.0
 10
-24.1005
 20
76.4665
 30
0.0
 10
-31.0265
 20
83.3922
 30
0.0
  0
SPLINE
  5
69
330
1F
100
AcDbEntity
  8
LAYER_1
100
AcDbSpline
210
0.0
220
0.0
230
1.0
 70
     8
 71
     3
 72
   232
 73
   228
 74
     0
 42
0.0000000001
 43
0.0000000001
 40
0.0
 40
0.0
 40
0.0
 40
0.0
 40
0.0175438596491228
 40
0.0175438596491228
 40
0.0175438596491228
 40
0.0175438596491228
 40
0.0350877192982456
 40
0.0350877192982456
 40
0.0350877192982456
 40
0.0350877192982456
 40
0.0526315789473684
 40
0.0526315789473684
 40
0.0526315789473684
 40
0.0526315789473684
 40
0.0701754385964912
 40
0.0701754385964912
 40
0.0701754385964912
 40
0.0701754385964912
 40
0.087719298245614
 40
0.087719298245614
 40
0.087719298245614
 40
0.087719298245614
 40
0.1052631578947368
 40
0.1052631578947368
 40
0.1052631578947368
 40
0.1052631578947368
 40
0.1228070175438596
 40
0.1228070175438596
 40
0.1228070175438596
 40
0.1228070175438596
 40
0.1403508771929824
 40
0.1403508771929824
 40
0.1403508771929824
 40
0.1403508771929824
 40
0.1578947368421053
 40
0.1578947368421053
 40
0.1578947368421053
 40
0.1578947368421053
 40
0.1754385964912281
 40
0.1754385964912281
 40
0.1754385964912281
 40
0.1754385964912281
 40
0.1929824561403509
 40
0.1929824561403509
 40
0.1929824561403509
 40
0.1929824561403509
 40
0.2105263157894737
 40
0.2105263157894737
 40
0.2105263157894737
 40
0.2105263157894737
 40
0.2280701754385965
 40
0.2280701754385965
 40
0.2280701754385965
 40
0.2280701754385965
 40
0.2456140350877193
 40
0.2456140350877193
 40
0.2456140350877193
 40
0.2456140350877193
 40
0.2631578947368421
 40
0.2631578947368421
 40
0.2631578947368421
 40
0.2631578947368421
 40
0.2807017543859649
 40
0.2807017543859649
 40
0.2807017543859649
 40
0.2807017543859649
 40
0.2982456140350877
 40
0.2982456140350877
 40
0.2982456140350877
 40
0.2982456140350877
 40
0.3157894736842105
 40
0.3157894736842105
 40
0.3157894736842105
 40
0.3157894736842105
 40
0.3333333333333333
 40
0.3333333333333333
 40
0.3333333333333333
 40
0.3333333333333333
 40
0.3508771929824561
 40
0.3508771929824561
 40
0.3508771929824561
 40
0.3508771929824561
 40
0.3684210526315789
 40
0.3684210526315789
 40
0.3684210526315789
 40
0.3684210526315789
 40
0.3859649122807017
 40
0.3859649122807017
 40
0.3859649122807017
 40
0.3859649122807017
 40
0.4035087719298245
 40
0.4035087719298245
 40
0.4035087719298245
 40
0.4035087719298245
 40
0.4210526315789473
 40
0.4210526315789473
 40
0.4210526315789473
 40
0.4210526315789473
 40
0.4385964912280702
 40
0.4385964912280702
 40
0.4385964912280702
 40
0.4385964912280702
 40
0.456140350877193
 40
0.456140350877193
 40
0.456140350877193
 40
0.456140350877193
 40
0.4736842105263158
 40
0.4736842105263158
 40
0.4736842105263158
 40
0.4736842105263158
 40
0.4912280701754386
 40
0.4912280701754386
 40
0.4912280701754386
 40
0.4912280701754386
 40
0.5087719298245614
 40
0.5087719298245614
 40
0.5087719298245614
 40
0.5087719298245614
 40
0.5263157894736843
 40
0.5263157894736843
 40
0.5263157894736843
 40
0.5263157894736843
 40
0.5438596491228072
 40
0.5438596491228072
 40
0.5438596491228072
 40
0.5438596491228072
 40
0.56140350877193
 40
0.56140350877193
 40
0.56140350877193
 40
0.56140350877193
 40
0.5789473684210529
 40
0.5789473684210529
 40
0.5789473684210529
 40
0.5789473684210529
 40
0.5964912280701757
 40
0.5964912280701757
 40
0.5964912280701757
 40
0.5964912280701757
 40
0.6140350877192986
 40
0.6140350877192986
 40
0.6140350877192986
 40
0.6140350877192986
 40
0.6315789473684215
 40
0.6315789473684215
 40
0.6315789473684215
 40
0.6315789473684215
 40
0.6491228070175443
 40
0.6491228070175443
 40
0.6491228070175443
 40
0.6491228070175443
 40
0.6666666666666672
 40
0.6666666666666672
 40
0.6666666666666672
 40
0.6666666666666672
 40
0.68421052631579
 40
0.68421052631579
 40
0.68421052631579
 40
0.68421052631579
 40
0.7017543859649129
 40
0.7017543859649129
 40
0.7017543859649129
 40
0.7017543859649129
 40
0.7192982456140358
 40
0.7192982456140358
 40
0.7192982456140358
 40
0.7192982456140358
 40
0.7368421052631586
 40
0.7368421052631586
 40
0.7368421052631586
 40
0.7368421052631586
 40
0.7543859649122815
 40
0.7543859649122815
 40
0.7543859649122815
 40
0.7543859649122815
 40
0.7719298245614044
 40
0.7719298245614044
 40
0.7719298245614044
 40
0.7719298245614044
 40
0.7894736842105272
 40
0.7894736842105272
 40
0.7894736842105272
 40
0.7894736842105272
 40
0.8070175438596501
 40
0.8070175438596501
 40
0.8070175438596501
 40
0.8070175438596501
 40
0.8245614035087729
 40
0.8245614035087729
 40
0.8245614035087729
 40
0.8245614035087729
 40
0.8421052631578958
 40
0.8421052631578958
 40
0.8421052631578958
 40
0.8421052631578958
 40
0.8596491228070187
 40
0.8596491228070187
 40
0.8596491228070187
 40
0.8596491228070187
 40
0.8771929824561415
 40
0.8771929824561415
 40
0.8771929824561415
 40
0.8771929824561415
 40
0.8947368421052644
 40
0.8947368421052644
 40
0.8947368421052644
 40
0.8947368421052644
 40
0.9122807017543872
 40
0.9122807017543872
 40
0.9122807017543872
 40
0.9122807017543872
 40
0.9298245614035101
 40
0.9298245614035101
 40
0.9298245614035101
 40
0.9298245614035101
 40
0.947368421052633
 40
0.947368421052633
 40
0.947368421052633
 40
0.947368421052633
 40
0.9649122807017558
 40
0.9649122807017558
 40
0.9649122807017558
 40
0.9649122807017558
 40
0.9824561403508787
 40
0.9824561403508787
 40
0.9824561403508787
 40
0.9824561403508787
 40
1.0
 40
1.0
 40
1.0
 40
1.0
 10
-31.0265
 20
83.3922
 30
0.0
 10
-31.0265
 20
83.3922
 30
0.0
 10
-13.2069
 20
65.5461
 30
0.0
 10
-13.2069
 20
65.5461
 30
0.0
 10
-13.2069
 20
65.5461
 30
0.0
 10
-13.2069
 20
65.5461
 30
0.0
 10
-13.5654
 20
65.5396
 30
0.0
 10
-13.5654
 20
65.5396
 30
0.0
 10
-13.5654
 20
65.5396
 30
0.0
 10
-13.5654
 20
65.5396
 30
0.0
 10
-16.262
 20
65.5396
 30
0.0
 10
-16.262
 20
65.5396
 30
0.0
 10
-16.262
 20
65.5396
 30
0.0
 10
-16.262
 20
65.5396
 30
0.0
 10
-18.9587
 20
65.5396
 30
0.0
 10
-18.9587
 20
65.5396
 30
0.0
 10
-18.9587
 20
65.5396
 30
0.0
 10
-18.9587
 20
65.5396
 30
0.0
 10
-18.9587
 20
62.2009
 30
0.0
 10
-18.9587
 20
62.2009
 30
0.0
 10
-18.9587
 20
62.2009
 30
0.0
 10
-18.9587
 20
62.2009
 30
0.0
 10
-18.9587
 20
58.8622
 30
0.0
 10
-18.9587
 20
58.8622
 30
0.0
 10
-18.9587
 20
58.8622
 30
0.0
 10
-18.9587
 20
58.8622
 30
0.0
 10
-21.27
 20
58.8622
 30
0.0
 10
-21.27
 20
58.8622
 30
0.0
 10
-21.27
 20
58.8622
 30
0.0
 10
-21.27
 20
58.8622
 30
0.0
 10
-23.5814
 20
58.8622
 30
0.0
 10
-23.5814
 20
58.8622
 30
0.0
 10
-23.5814
 20
58.8622
 30
0.0
 10
-23.5814
 20
58.8622
 30
0.0
 10
-23.5814
 20
62.2009
 30
0.0
 10
-23.5814
 20
62.2009
 30
0.0
 10
-23.5814
 20
62.2009
 30
0.0
 10
-23.5814
 20
62.2009
 30
0.0
 10
-23.5814
 20
65.5396
 30
0.0
 10
-23.5814
 20
65.5396
 30
0.0
 10
-23.5814
 20
65.5396
 30
0.0
 10
-23.5814
 20
65.5396
 30
0.0
 10
-26.2781
 20
65.5396
 30
0.0
 10
-26.2781
 20
65.5396
 30
0.0
 10
-26.2781
 20
65.5396
 30
0.0
 10
-26.2781
 20
65.5396
 30
0.0
 10
-28.9747
 20
65.5396
 30
0.0
 10
-28.9747
 20
65.5396
 30
0.0
 10
-28.9747
 20
65.5396
 30
0.0
 10
-28.9747
 20
65.5396
 30
0.0
 10
-28.9747
 20
62.2009
 30
0.0
 10
-28.9747
 20
62.2009
 30
0.0
 10
-28.9747
 20
62.2009
 30
0.0
 10
-28.9747
 20
62.2009
 30
0.0
 10
-28.9747
 20
58.8622
 30
0.0
 10
-28.9747
 20
58.8622
 30
0.0
 10
-28.9747
 20
58.8622
 30
0.0
 10
-28.9747
 20
58.8622
 30
0.0
 10
-31.2861
 20
58.8622
 30
0.0
 10
-31.2861
 20
58.8622
 30
0.0
 10
-31.2861
 20
58.8622
 30
0.0
 10
-31.2861
 20
58.8622
 30
0.0
 10
-33.5975
 20
58.8622
 30
0.0
 10
-33.5975
 20
58.8622
 30
0.0
 10
-33.5975
 20
58.8622
 30
0.0
 10
-33.5975
 20
58.8622
 30
0.0
 10
-33.5975
 20
62.2009
 30
0.0
 10
-33.5975
 20
62.2009
 30
0.0
 10
-33.5975
 20
62.2009
 30
0.0
 10
-33.5975
 20
62.2009
 30
0.0
 10
-33.5975
 20
65.5396
 30
0.0
 10
-33.5975
 20
65.5396
 30
0.0
 10
-33.5975
 20
65.5396
 30
0.0
 10
-33.5975
 20
65.5396
 30
0.0
 10
-36.2941
 20
65.5396
 30
0.0
 10
-36.2941
 20
65.5396
 30
0.0
 10
-36.2941
 20
65.5396
 30
0.0
 10
-36.2941
 20
65.5396
 30
0.0
 10
-38.9908
 20
65.5396
 30
0.0
 10
-38.9908
 20
65.5396
 30
0.0
 10
-38.9908
 20
65.5396
 30
0.0
 10
-38.9908
 20
65.5396
 30
0.0
 10
-38.9908
 20
62.2009
 30
0.0
 10
-38.9908
 20
62.2009
 30
0.0
 10
-38.9908
 20
62.2009
 30
0.0
 10
-38.9908
 20
62.2009
 30
0.0
 10
-38.9908
 20
58.8622
 30
0.0
 10
-38.9908
 20
58.8622
 30
0.0
 10
-38.9908
 20
58.8622
 30
0.0
 10
-38.9908
 20
58.8622
 30
0.0
 10
-41.3022
 20
58.8622
 30
0.0
 10
-41.3022
 20
58.8622
 30
0.0
 10
-41.3022
 20
58.8622
 30
0.0
 10
-41.3022
 20
58.8622
 30
0.0
 10
-43.6135
 20
58.8622
 30
0.0
 10
-43.6135
 20
58.8622
 30
0.0
 10
-43.6135
 20
58.8622
 30
0.0
 10
-43.6135
 20
58.8622
 30
0.0
 10
-43.6135
 20
62.2009
 30
0.0
 10
-43.6135
 20
62.2009
 30
0.0
 10
-43.6135
 20
62.2009
 30
0.0
 10
-43.6135
 20
62.2009
 30
0.0
 10
-43.6135
 20
62.2009
 30
0.0
 10
-43.6135
 20
62.2009
 30
0.0
 10
-43.6135
 20
62.2009
 30
0.0
 10
-43.6135
 20
62.2009
 30
0.0
 10
-43.6135
 20
65.5395
 30
0.0
 10
-43.6135
 20
65.5395
 30
0.0
 10
-43.6135
 20
65.5395
 30
0.0
 10
-43.6135
 20
65.5395
 30
0.0
 10
-46.1818
 20
65.5395
 30
0.0
 10
-46.1818
 20
65.5395
 30
0.0
 10
-46.1818
 20
65.5395
 30
0.0
 10
-46.1818
 20
65.5395
 30
0.0
 10
-48.75
 20
65.5395
 30
0.0
 10
-48.75
 20
65.5395
 30
0.0
 10
-48.75
 20
65.5395
 30
0.0
 10
-48.75
 20
65.5395
 30
0.0
 10
-48.75
 20
67.9794
 30
0.0
 10
-48.75
 20
67.9794
 30
0.0
 10
-48.75
 20
67.9794
 30
0.0
 10
-48.75
 20
67.9794
 30
0.0
 10
-48.75
 20
70.4192
 30
0.0
 10
-48.75
 20
70.4192
 30
0.0
 10
-48.75
 20
70.4192
 30
0.0
 10
-48.75
 20
70.4192
 30
0.0
 10
-52.0887
 20
70.4192
 30
0.0
 10
-52.0887
 20
70.4192
 30
0.0
 10
-52.0887
 20
70.4192
 30
0.0
 10
-52.0887
 20
70.4192
 30
0.0
 10
-55.4274
 20
70.4192
 30
0.0
 10
-55.4274
 20
70.4192
 30
0.0
 10
-55.4274
 20
70.4192
 30
0.0
 10
-55.4274
 20
70.4192
 30
0.0
 10
-55.4274
 20
72.859
 30
0.0
 10
-55.4274
 20
72.859
 30
0.0
 10
-55.4274
 20
72.859
 30
0.0
 10
-55.4274
 20
72.859
 30
0.0
 10
-55.4274
 20
75.2988
 30
0.0
 10
-55.4274
 20
75.2988
 30
0.0
 10
-55.4274
 20
75.2988
 30
0.0
 10
-55.4274
 20
75.2988
 30
0.0
 10
-52.0887
 20
75.2988
 30
0.0
 10
-52.0887
 20
75.2988
 30
0.0
 10
-52.0887
 20
75.2988
 30
0.0
 10
-52.0887
 20
75.2988
 30
0.0
 10
-48.75
 20
75.2988
 30
0.0
 10
-48.75
 20
75.2988
 30
0.0
 10
-48.75
 20
75.2988
 30
0.0
 10
-48.75
 20
75.2988
 30
0.0
 10
-48.75
 20
77.867
 30
0.0
 10
-48.75
 20
77.867
 30
0.0
 10
-48.75
 20
77.867
 30
0.0
 10
-48.75
 20
77.867
 30
0.0
 10
-48.75
 20
80.4352
 30
0.0
 10
-48.75
 20
80.4352
 30
0.0
 10
-48.75
 20
80.4352
 30
0.0
 10
-48.75
 20
80.4352
 30
0.0
 10
-52.0887
 20
80.4352
 30
0.0
 10
-52.0887
 20
80.4352
 30
0.0
 10
-52.0887
 20
80.4352
 30
0.0
 10
-52.0887
 20
80.4352
 30
0.0
 10
-55.4274
 20
80.4352
 30
0.0
 10
-55.4274
 20
80.4352
 30
0.0
 10
-55.4274
 20
80.4352
 30
0.0
 10
-55.4274
 20
80.4352
 30
0.0
 10
-55.4274
 20
82.875
 30
0.0
 10
-55.4274
 20
82.875
 30
0.0
 10
-55.4274
 20
82.875
 30
0.0
 10
-55.4274
 20
82.875
 30
0.0
 10
-55.4274
 20
85.3148
 30
0.0
 10
-55.4274
 20
85.3148
 30
0.0
 10
-55.4274
 20
85.3148
 30
0.0
 10
-55.4274
 20
85.3148
 30
0.0
 10
-52.0887
 20
85.3148
 30
0.0
 10
-52.0887
 20
85.3148
 30
0.0
 10
-52.0887
 20
85.3148
 30
0.0
 10
-52.0887
 20
85.3148
 30
0.0
 10
-48.75
 20
85.3148
 30
0.0
 10
-48.75
 20
85.3148
 30
0.0
 10
-48.75
 20
85.3148
 30
0.0
 10
-48.75
 20
85.3148
 30
0.0
 10
-48.75
 20
87.883
 30
0.0
 10
-48.75
 20
87.883
 30
0.0
 10
-48.75
 20
87.883
 30
0.0
 10
-48.75
 20
87.883
 30
0.0
 10
-48.75
 20
90.4513
 30
0.0
 10
-48.75
 20
90.4513
 30
0.0
 10
-48.75
 20
90.4513
 30
0.0
 10
-48.75
 20
90.4513
 30
0.0
 10
-52.0887
 20
90.4513
 30
0.0
 10
-52.0887
 20
90.4513
 30
0.0
 10
-52.0887
 20
90.4513
 30
0.0
 10
-52.0887
 20
90.4513
 30
0.0
 10
-55.4274
 20
90.4513
 30
0.0
 10
-55.4274
 20
90.4513
 30
0.0
 10
-55.4274
 20
90.4513
 30
0.0
 10
-55.4274
 20
90.4513
 30
0.0
 10
-55.4274
 20
92.8911
 30
0.0
 10
-55.4274
 20
92.8911
 30
0.0
 10
-55.4274
 20
92.8911
 30
0.0
 10
-55.4274
 20
92.8911
 30
0.0
 10
-55.4274
 20
95.3309
 30
0.0
 10
-55.4274
 20
95.3309
 30
0.0
 10
-55.4274
 20
95.3309
 30
0.0
 10
-55.4274
 20
95.3309
 30
0.0
 10
-52.0887
 20
95.3309
 30
0.0
 10
-52.0887
 20
95.3309
 30
0.0
 10
-52.0887
 20
95.3309
 30
0.0
 10
-52.0887
 20
95.3309
 30
0.0
 10
-48.75
 20
95.3309
 30
0.0
 10
-48.75
 20
95.3309
 30
0.0
 10
-48.75
 20
95.3309
 30
0.0
 10
-48.75
 20
95.3309
 30
0.0
 10
-48.75
 20
97.6423
 30
0.0
 10
-48.75
 20
97.6423
 30
0.0
 10
-48.75
 20
97.6423
 30
0.0
 10
-48.75
 20
97.6423
 30
0.0
 10
-48.7086
 20
99.9537
 30
0.0
 10
-48.7086
 20
99.9537
 30
0.0
 10
-48.7086
 20
99.9537
 30
0.0
 10
-48.7086
 20
99.9537
 30
0.0
 10
-48.702
 20
101.0961
 30
0.0
 10
-48.702
 20
101.0961
 30
0.0
 10
-48.702
 20
101.0961
 30
0.0
 10
-48.702
 20
101.0961
 30
0.0
 10
-31.0293
 20
83.3887
 30
0.0
 10
-31.0293
 20
83.3887
 30
0.0
  0
SPLINE
  5
6A
330
1F
100
AcDbEntity
  8
LAYER_1
100
AcDbSpline
210
0.0
220
0.0
230
1.0
 70
    11
 71
     3
 72
   488
 73
   484
 74
     0
 42
0.0000000001
 43
0.0000000001
 40
0.0
 40
0.0
 40
0.0
 40
0.0
 40
0.0082644628099174
 40
0.0082644628099174
 40
0.0082644628099174
 40
0.0082644628099174
 40
0.0165289256198347
 40
0.0165289256198347
 40
0.0165289256198347
 40
0.0165289256198347
 40
0.0247933884297521
 40
0.0247933884297521
 40
0.0247933884297521
 40
0.0247933884297521
 40
0.0330578512396694
 40
0.0330578512396694
 40
0.0330578512396694
 40
0.0330578512396694
 40
0.0413223140495868
 40
0.0413223140495868
 40
0.0413223140495868
 40
0.0413223140495868
 40
0.0495867768595041
 40
0.0495867768595041
 40
0.0495867768595041
 40
0.0495867768595041
 40
0.0578512396694215
 40
0.0578512396694215
 40
0.0578512396694215
 40
0.0578512396694215
 40
0.0661157024793388
 40
0.0661157024793388
 40
0.0661157024793388
 40
0.0661157024793388
 40
0.0743801652892562
 40
0.0743801652892562
 40
0.0743801652892562
 40
0.0743801652892562
 40
0.0826446280991736
 40
0.0826446280991736
 40
0.0826446280991736
 40
0.0826446280991736
 40
0.0909090909090909
 40
0.0909090909090909
 40
0.0909090909090909
 40
0.0909090909090909
 40
0.0991735537190083
 40
0.0991735537190083
 40
0.0991735537190083
 40
0.0991735537190083
 40
0.1074380165289256
 40
0.1074380165289256
 40
0.1074380165289256
 40
0.1074380165289256
 40
0.115702479338843
 40
0.115702479338843
 40
0.115702479338843
 40
0.115702479338843
 40
0.1239669421487603
 40
0.1239669421487603
 40
0.1239669421487603
 40
0.1239669421487603
 40
0.1322314049586777
 40
0.1322314049586777
 40
0.1322314049586777
 40
0.1322314049586777
 40
0.140495867768595
 40
0.140495867768595
 40
0.140495867768595
 40
0.140495867768595
 40
0.1487603305785124
 40
0.1487603305785124
 40
0.1487603305785124
 40
0.1487603305785124
 40
0.1570247933884298
 40
0.1570247933884298
 40
0.1570247933884298
 40
0.1570247933884298
 40
0.1652892561983471
 40
0.1652892561983471
 40
0.1652892561983471
 40
0.1652892561983471
 40
0.1735537190082645
 40
0.1735537190082645
 40
0.1735537190082645
 40
0.1735537190082645
 40
0.1818181818181818
 40
0.1818181818181818
 40
0.1818181818181818
 40
0.1818181818181818
 40
0.1900826446280992
 40
0.1900826446280992
 40
0.1900826446280992
 40
0.1900826446280992
 40
0.1983471074380165
 40
0.1983471074380165
 40
0.1983471074380165
 40
0.1983471074380165
 40
0.2066115702479339
 40
0.2066115702479339
 40
0.2066115702479339
 40
0.2066115702479339
 40
0.2148760330578512
 40
0.2148760330578512
 40
0.2148760330578512
 40
0.2148760330578512
 40
0.2231404958677686
 40
0.2231404958677686
 40
0.2231404958677686
 40
0.2231404958677686
 40
0.231404958677686
 40
0.231404958677686
 40
0.231404958677686
 40
0.231404958677686
 40
0.2396694214876033
 40
0.2396694214876033
 40
0.2396694214876033
 40
0.2396694214876033
 40
0.2479338842975207
 40
0.2479338842975207
 40
0.2479338842975207
 40
0.2479338842975207
 40
0.2561983471074381
 40
0.2561983471074381
 40
0.2561983471074381
 40
0.2561983471074381
 40
0.2644628099173554
 40
0.2644628099173554
 40
0.2644628099173554
 40
0.2644628099173554
 40
0.2727272727272727
 40
0.2727272727272727
 40
0.2727272727272727
 40
0.2727272727272727
 40
0.28099173553719
 40
0.28099173553719
 40
0.28099173553719
 40
0.28099173553719
 40
0.2892561983471074
 40
0.2892561983471074
 40
0.2892561983471074
 40
0.2892561983471074
 40
0.2975206611570247
 40
0.2975206611570247
 40
0.2975206611570247
 40
0.2975206611570247
 40
0.305785123966942
 40
0.305785123966942
 40
0.305785123966942
 40
0.305785123966942
 40
0.3140495867768593
 40
0.3140495867768593
 40
0.3140495867768593
 40
0.3140495867768593
 40
0.3223140495867767
 40
0.3223140495867767
 40
0.3223140495867767
 40
0.3223140495867767
 40
0.330578512396694
 40
0.330578512396694
 40
0.330578512396694
 40
0.330578512396694
 40
0.3388429752066113
 40
0.3388429752066113
 40
0.3388429752066113
 40
0.3388429752066113
 40
0.3471074380165287
 40
0.3471074380165287
 40
0.3471074380165287
 40
0.3471074380165287
 40
0.355371900826446
 40
0.355371900826446
 40
0.355371900826446
 40
0.355371900826446
 40
0.3636363636363633
 40
0.3636363636363633
 40
0.3636363636363633
 40
0.3636363636363633
 40
0.3719008264462806
 40
0.3719008264462806
 40
0.3719008264462806
 40
0.3719008264462806
 40
0.380165289256198
 40
0.380165289256198
 40
0.380165289256198
 40
0.380165289256198
 40
0.3884297520661153
 40
0.3884297520661153
 40
0.3884297520661153
 40
0.3884297520661153
 40
0.3966942148760326
 40
0.3966942148760326
 40
0.3966942148760326
 40
0.3966942148760326
 40
0.40495867768595
 40
0.40495867768595
 40
0.40495867768595
 40
0.40495867768595
 40
0.4132231404958673
 40
0.4132231404958673
 40
0.4132231404958673
 40
0.4132231404958673
 40
0.4214876033057846
 40
0.4214876033057846
 40
0.4214876033057846
 40
0.4214876033057846
 40
0.4297520661157019
 40
0.4297520661157019
 40
0.4297520661157019
 40
0.4297520661157019
 40
0.4380165289256193
 40
0.4380165289256193
 40
0.4380165289256193
 40
0.4380165289256193
 40
0.4462809917355366
 40
0.4462809917355366
 40
0.4462809917355366
 40
0.4462809917355366
 40
0.4545454545454539
 40
0.4545454545454539
 40
0.4545454545454539
 40
0.4545454545454539
 40
0.4628099173553712
 40
0.4628099173553712
 40
0.4628099173553712
 40
0.4628099173553712
 40
0.4710743801652886
 40
0.4710743801652886
 40
0.4710743801652886
 40
0.4710743801652886
 40
0.4793388429752059
 40
0.4793388429752059
 40
0.4793388429752059
 40
0.4793388429752059
 40
0.4876033057851232
 40
0.4876033057851232
 40
0.4876033057851232
 40
0.4876033057851232
 40
0.4958677685950406
 40
0.4958677685950406
 40
0.4958677685950406
 40
0.4958677685950406
 40
0.5041322314049579
 40
0.5041322314049579
 40
0.5041322314049579
 40
0.5041322314049579
 40
0.5123966942148752
 40
0.5123966942148752
 40
0.5123966942148752
 40
0.5123966942148752
 40
0.5206611570247925
 40
0.5206611570247925
 40
0.5206611570247925
 40
0.5206611570247925
 40
0.5289256198347099
 40
0.5289256198347099
 40
0.5289256198347099
 40
0.5289256198347099
 40
0.5371900826446272
 40
0.5371900826446272
 40
0.5371900826446272
 40
0.5371900826446272
 40
0.5454545454545445
 40
0.5454545454545445
 40
0.5454545454545445
 40
0.5454545454545445
 40
0.5537190082644619
 40
0.5537190082644619
 40
0.5537190082644619
 40
0.5537190082644619
 40
0.5619834710743792
 40
0.5619834710743792
 40
0.5619834710743792
 40
0.5619834710743792
 40
0.5702479338842965
 40
0.5702479338842965
 40
0.5702479338842965
 40
0.5702479338842965
 40
0.5785123966942138
 40
0.5785123966942138
 40
0.5785123966942138
 40
0.5785123966942138
 40
0.5867768595041312
 40
0.5867768595041312
 40
0.5867768595041312
 40
0.5867768595041312
 40
0.5950413223140485
 40
0.5950413223140485
 40
0.5950413223140485
 40
0.5950413223140485
 40
0.6033057851239658
 40
0.6033057851239658
 40
0.6033057851239658
 40
0.6033057851239658
 40
0.6115702479338831
 40
0.6115702479338831
 40
0.6115702479338831
 40
0.6115702479338831
 40
0.6198347107438005
 40
0.6198347107438005
 40
0.6198347107438005
 40
0.6198347107438005
 40
0.6280991735537178
 40
0.6280991735537178
 40
0.6280991735537178
 40
0.6280991735537178
 40
0.6363636363636351
 40
0.6363636363636351
 40
0.6363636363636351
 40
0.6363636363636351
 40
0.6446280991735525
 40
0.6446280991735525
 40
0.6446280991735525
 40
0.6446280991735525
 40
0.6528925619834698
 40
0.6528925619834698
 40
0.6528925619834698
 40
0.6528925619834698
 40
0.6611570247933871
 40
0.6611570247933871
 40
0.6611570247933871
 40
0.6611570247933871
 40
0.6694214876033044
 40
0.6694214876033044
 40
0.6694214876033044
 40
0.6694214876033044
 40
0.6776859504132218
 40
0.6776859504132218
 40
0.6776859504132218
 40
0.6776859504132218
 40
0.6859504132231391
 40
0.6859504132231391
 40
0.6859504132231391
 40
0.6859504132231391
 40
0.6942148760330564
 40
0.6942148760330564
 40
0.6942148760330564
 40
0.6942148760330564
 40
0.7024793388429738
 40
0.7024793388429738
 40
0.7024793388429738
 40
0.7024793388429738
 40
0.7107438016528911
 40
0.7107438016528911
 40
0.7107438016528911
 40
0.7107438016528911
 40
0.7190082644628084
 40
0.7190082644628084
 40
0.7190082644628084
 40
0.7190082644628084
 40
0.7272727272727257
 40
0.7272727272727257
 40
0.7272727272727257
 40
0.7272727272727257
 40
0.7355371900826431
 40
0.7355371900826431
 40
0.7355371900826431
 40
0.7355371900826431
 40
0.7438016528925604
 40
0.7438016528925604
 40
0.7438016528925604
 40
0.7438016528925604
 40
0.7520661157024777
 40
0.7520661157024777
 40
0.7520661157024777
 40
0.7520661157024777
 40
0.760330578512395
 40
0.760330578512395
 40
0.760330578512395
 40
0.760330578512395
 40
0.7685950413223124
 40
0.7685950413223124
 40
0.7685950413223124
 40
0.7685950413223124
 40
0.7768595041322297
 40
0.7768595041322297
 40
0.7768595041322297
 40
0.7768595041322297
 40
0.785123966942147
 40
0.785123966942147
 40
0.785123966942147
 40
0.785123966942147
 40
0.7933884297520644
 40
0.7933884297520644
 40
0.7933884297520644
 40
0.7933884297520644
 40
0.8016528925619817
 40
0.8016528925619817
 40
0.8016528925619817
 40
0.8016528925619817
 40
0.809917355371899
 40
0.809917355371899
 40
0.809917355371899
 40
0.809917355371899
 40
0.8181818181818163
 40
0.8181818181818163
 40
0.8181818181818163
 40
0.8181818181818163
 40
0.8264462809917337
 40
0.8264462809917337
 40
0.8264462809917337
 40
0.8264462809917337
 40
0.834710743801651
 40
0.834710743801651
 40
0.834710743801651
 40
0.834710743801651
 40
0.8429752066115683
 40
0.8429752066115683
 40
0.8429752066115683
 40
0.8429752066115683
 40
0.8512396694214857
 40
0.8512396694214857
 40
0.8512396694214857
 40
0.8512396694214857
 40
0.859504132231403
 40
0.859504132231403
 40
0.859504132231403
 40
0.859504132231403
 40
0.8677685950413203
 40
0.8677685950413203
 40
0.8677685950413203
 40
0.8677685950413203
 40
0.8760330578512376
 40
0.8760330578512376
 40
0.8760330578512376
 40
0.8760330578512376
 40
0.884297520661155
 40
0.884297520661155
 40
0.884297520661155
 40
0.884297520661155
 40
0.8925619834710723
 40
0.8925619834710723
 40
0.8925619834710723
 40
0.8925619834710723
 40
0.9008264462809896
 40
0.9008264462809896
 40
0.9008264462809896
 40
0.9008264462809896
 40
0.909090909090907
 40
0.909090909090907
 40
0.909090909090907
 40
0.909090909090907
 40
0.9173553719008243
 40
0.9173553719008243
 40
0.9173553719008243
 40
0.9173553719008243
 40
0.9256198347107416
 40
0.9256198347107416
 40
0.9256198347107416
 40
0.9256198347107416
 40
0.9338842975206589
 40
0.9338842975206589
 40
0.9338842975206589
 40
0.9338842975206589
 40
0.9421487603305763
 40
0.9421487603305763
 40
0.9421487603305763
 40
0.9421487603305763
 40
0.9504132231404936
 40
0.9504132231404936
 40
0.9504132231404936
 40
0.9504132231404936
 40
0.9586776859504109
 40
0.9586776859504109
 40
0.9586776859504109
 40
0.9586776859504109
 40
0.9669421487603282
 40
0.9669421487603282
 40
0.9669421487603282
 40
0.9669421487603282
 40
0.9752066115702456
 40
0.9752066115702456
 40
0.9752066115702456
 40
0.9752066115702456
 40
0.9834710743801629
 40
0.9834710743801629
 40
0.9834710743801629
 40
0.9834710743801629
 40
0.9917355371900802
 40
0.9917355371900802
 40
0.9917355371900802
 40
0.9917355371900802
 40
1.0
 40
1.0
 40
1.0
 40
1.0
 10
-62.7161
 20
-63.4354
 30
0.0
 10
-62.7161
 20
-63.4354
 30
0.0
 10
-62.7161
 20
-57.1432
 30
0.0
 10
-62.7161
 20
-57.1432
 30
0.0
 10
-62.7161
 20
-57.1432
 30
0.0
 10
-62.7161
 20
-57.1432
 30
0.0
 10
-59.249
 20
-57.1432
 30
0.0
 10
-59.249
 20
-57.1432
 30
0.0
 10
-59.249
 20
-57.1432
 30
0.0
 10
-59.249
 20
-57.1432
 30
0.0
 10
-55.7819
 20
-57.1432
 30
0.0
 10
-55.7819
 20
-57.1432
 30
0.0
 10
-55.7819
 20
-57.1432
 30
0.0
 10
-55.7819
 20
-57.1432
 30
0.0
 10
-55.7819
 20
-54.4466
 30
0.0
 10
-55.7819
 20
-54.4466
 30
0.0
 10
-55.7819
 20
-54.4466
 30
0.0
 10
-55.7819
 20
-54.4466
 30
0.0
 10
-55.7819
 20
-51.7499
 30
0.0
 10
-55.7819
 20
-51.7499
 30
0.0
 10
-55.7819
 20
-51.7499
 30
0.0
 10
-55.7819
 20
-51.7499
 30
0.0
 10
-59.249
 20
-51.7499
 30
0.0
 10
-59.249
 20
-51.7499
 30
0.0
 10
-59.249
 20
-51.7499
 30
0.0
 10
-59.249
 20
-51.7499
 30
0.0
 10
-62.7161
 20
-51.7499
 30
0.0
 10
-62.7161
 20
-51.7499
 30
0.0
 10
-62.7161
 20
-51.7499
 30
0.0
 10
-62.7161
 20
-51.7499
 30
0.0
 10
-62.7161
 20
-49.4386
 30
0.0
 10
-62.7161
 20
-49.4386
 30
0.0
 10
-62.7161
 20
-49.4386
 30
0.0
 10
-62.7161
 20
-49.4386
 30
0.0
 10
-62.7161
 20
-47.1272
 30
0.0
 10
-62.7161
 20
-47.1272
 30
0.0
 10
-62.7161
 20
-47.1272
 30
0.0
 10
-62.7161
 20
-47.1272
 30
0.0
 10
-59.249
 20
-47.1272
 30
0.0
 10
-59.249
 20
-47.1272
 30
0.0
 10
-59.249
 20
-47.1272
 30
0.0
 10
-59.249
 20
-47.1272
 30
0.0
 10
-55.7819
 20
-47.1272
 30
0.0
 10
-55.7819
 20
-47.1272
 30
0.0
 10
-55.7819
 20
-47.1272
 30
0.0
 10
-55.7819
 20
-47.1272
 30
0.0
 10
-55.7819
 20
-44.4305
 30
0.0
 10
-55.7819
 20
-44.4305
 30
0.0
 10
-55.7819
 20
-44.4305
 30
0.0
 10
-55.7819
 20
-44.4305
 30
0.0
 10
-55.7819
 20
-41.7339
 30
0.0
 10
-55.7819
 20
-41.7339
 30
0.0
 10
-55.7819
 20
-41.7339
 30
0.0
 10
-55.7819
 20
-41.7339
 30
0.0
 10
-59.249
 20
-41.7339
 30
0.0
 10
-59.249
 20
-41.7339
 30
0.0
 10
-59.249
 20
-41.7339
 30
0.0
 10
-59.249
 20
-41.7339
 30
0.0
 10
-62.7161
 20
-41.7339
 30
0.0
 10
-62.7161
 20
-41.7339
 30
0.0
 10
-62.7161
 20
-41.7339
 30
0.0
 10
-62.7161
 20
-41.7339
 30
0.0
 10
-62.7161
 20
-39.4225
 30
0.0
 10
-62.7161
 20
-39.4225
 30
0.0
 10
-62.7161
 20
-39.4225
 30
0.0
 10
-62.7161
 20
-39.4225
 30
0.0
 10
-62.7161
 20
-37.1111
 30
0.0
 10
-62.7161
 20
-37.1111
 30
0.0
 10
-62.7161
 20
-37.1111
 30
0.0
 10
-62.7161
 20
-37.1111
 30
0.0
 10
-59.249
 20
-37.1111
 30
0.0
 10
-59.249
 20
-37.1111
 30
0.0
 10
-59.249
 20
-37.1111
 30
0.0
 10
-59.249
 20
-37.1111
 30
0.0
 10
-55.7819
 20
-37.1111
 30
0.0
 10
-55.7819
 20
-37.1111
 30
0.0
 10
-55.7819
 20
-37.1111
 30
0.0
 10
-55.7819
 20
-37.1111
 30
0.0
 10
-55.7819
 20
-34.4145
 30
0.0
 10
-55.7819
 20
-34.4145
 30
0.0
 10
-55.7819
 20
-34.4145
 30
0.0
 10
-55.7819
 20
-34.4145
 30
0.0
 10
-55.7819
 20
-31.7178
 30
0.0
 10
-55.7819
 20
-31.7178
 30
0.0
 10
-55.7819
 20
-31.7178
 30
0.0
 10
-55.7819
 20
-31.7178
 30
0.0
 10
-59.249
 20
-31.7178
 30
0.0
 10
-59.249
 20
-31.7178
 30
0.0
 10
-59.249
 20
-31.7178
 30
0.0
 10
-59.249
 20
-31.7178
 30
0.0
 10
-62.7161
 20
-31.7178
 30
0.0
 10
-62.7161
 20
-31.7178
 30
0.0
 10
-62.7161
 20
-31.7178
 30
0.0
 10
-62.7161
 20
-31.7178
 30
0.0
 10
-62.7161
 20
-29.4064
 30
0.0
 10
-62.7161
 20
-29.4064
 30
0.0
 10
-62.7161
 20
-29.4064
 30
0.0
 10
-62.7161
 20
-29.4064
 30
0.0
 10
-62.7161
 20
-27.0951
 30
0.0
 10
-62.7161
 20
-27.0951
 30
0.0
 10
-62.7161
 20
-27.0951
 30
0.0
 10
-62.7161
 20
-27.0951
 30
0.0
 10
-59.249
 20
-27.0951
 30
0.0
 10
-59.249
 20
-27.0951
 30
0.0
 10
-59.249
 20
-27.0951
 30
0.0
 10
-59.249
 20
-27.0951
 30
0.0
 10
-55.7819
 20
-27.0951
 30
0.0
 10
-55.7819
 20
-27.0951
 30
0.0
 10
-55.7819
 20
-27.0951
 30
0.0
 10
-55.7819
 20
-27.0951
 30
0.0
 10
-55.7819
 20
-24.3984
 30
0.0
 10
-55.7819
 20
-24.3984
 30
0.0
 10
-55.7819
 20
-24.3984
 30
0.0
 10
-55.7819
 20
-24.3984
 30
0.0
 10
-55.7819
 20
-21.7018
 30
0.0
 10
-55.7819
 20
-21.7018
 30
0.0
 10
-55.7819
 20
-21.7018
 30
0.0
 10
-55.7819
 20
-21.7018
 30
0.0
 10
-59.249
 20
-21.7018
 30
0.0
 10
-59.249
 20
-21.7018
 30
0.0
 10
-59.249
 20
-21.7018
 30
0.0
 10
-59.249
 20
-21.7018
 30
0.0
 10
-62.7161
 20
-21.7018
 30
0.0
 10
-62.7161
 20
-21.7018
 30
0.0
 10
-62.7161
 20
-21.7018
 30
0.0
 10
-62.7161
 20
-21.7018
 30
0.0
 10
-62.7161
 20
-16.0517
 30
0.0
 10
-62.7161
 20
-16.0517
 30
0.0
 10
-62.7161
 20
-16.0517
 30
0.0
 10
-62.7161
 20
-16.0517
 30
0.0
 10
-62.7161
 20
-10.4016
 30
0.0
 10
-62.7161
 20
-10.4016
 30
0.0
 10
-62.7161
 20
-10.4016
 30
0.0
 10
-62.7161
 20
-10.4016
 30
0.0
 10
-60.4047
 20
-10.4016
 30
0.0
 10
-60.4047
 20
-10.4016
 30
0.0
 10
-60.4047
 20
-10.4016
 30
0.0
 10
-60.4047
 20
-10.4016
 30
0.0
 10
-58.0933
 20
-10.4016
 30
0.0
 10
-58.0933
 20
-10.4016
 30
0.0
 10
-58.0933
 20
-10.4016
 30
0.0
 10
-58.0933
 20
-10.4016
 30
0.0
 10
-58.0933
 20
-13.7403
 30
0.0
 10
-58.0933
 20
-13.7403
 30
0.0
 10
-58.0933
 20
-13.7403
 30
0.0
 10
-58.0933
 20
-13.7403
 30
0.0
 10
-58.0933
 20
-17.079
 30
0.0
 10
-58.0933
 20
-17.079
 30
0.0
 10
-58.0933
 20
-17.079
 30
0.0
 10
-58.0933
 20
-17.079
 30
0.0
 10
-55.3967
 20
-17.079
 30
0.0
 10
-55.3967
 20
-17.079
 30
0.0
 10
-55.3967
 20
-17.079
 30
0.0
 10
-55.3967
 20
-17.079
 30
0.0
 10
-52.7
 20
-17.079
 30
0.0
 10
-52.7
 20
-17.079
 30
0.0
 10
-52.7
 20
-17.079
 30
0.0
 10
-52.7
 20
-17.079
 30
0.0
 10
-52.7
 20
-13.7403
 30
0.0
 10
-52.7
 20
-13.7403
 30
0.0
 10
-52.7
 20
-13.7403
 30
0.0
 10
-52.7
 20
-13.7403
 30
0.0
 10
-52.7
 20
-10.4016
 30
0.0
 10
-52.7
 20
-10.4016
 30
0.0
 10
-52.7
 20
-10.4016
 30
0.0
 10
-52.7
 20
-10.4016
 30
0.0
 10
-50.3886
 20
-10.4016
 30
0.0
 10
-50.3886
 20
-10.4016
 30
0.0
 10
-50.3886
 20
-10.4016
 30
0.0
 10
-50.3886
 20
-10.4016
 30
0.0
 10
-48.0772
 20
-10.4016
 30
0.0
 10
-48.0772
 20
-10.4016
 30
0.0
 10
-48.0772
 20
-10.4016
 30
0.0
 10
-48.0772
 20
-10.4016
 30
0.0
 10
-48.0772
 20
-13.7403
 30
0.0
 10
-48.0772
 20
-13.7403
 30
0.0
 10
-48.0772
 20
-13.7403
 30
0.0
 10
-48.0772
 20
-13.7403
 30
0.0
 10
-48.0772
 20
-17.079
 30
0.0
 10
-48.0772
 20
-17.079
 30
0.0
 10
-48.0772
 20
-17.079
 30
0.0
 10
-48.0772
 20
-17.079
 30
0.0
 10
-45.509
 20
-17.079
 30
0.0
 10
-45.509
 20
-17.079
 30
0.0
 10
-45.509
 20
-17.079
 30
0.0
 10
-45.509
 20
-17.079
 30
0.0
 10
-42.9408
 20
-17.079
 30
0.0
 10
-42.9408
 20
-17.079
 30
0.0
 10
-42.9408
 20
-17.079
 30
0.0
 10
-42.9408
 20
-17.079
 30
0.0
 10
-42.9408
 20
-13.7403
 30
0.0
 10
-42.9408
 20
-13.7403
 30
0.0
 10
-42.9408
 20
-13.7403
 30
0.0
 10
-42.9408
 20
-13.7403
 30
0.0
 10
-42.9408
 20
-10.4016
 30
0.0
 10
-42.9408
 20
-10.4016
 30
0.0
 10
-42.9408
 20
-10.4016
 30
0.0
 10
-42.9408
 20
-10.4016
 30
0.0
 10
-40.501
 20
-10.4016
 30
0.0
 10
-40.501
 20
-10.4016
 30
0.0
 10
-40.501
 20
-10.4016
 30
0.0
 10
-40.501
 20
-10.4016
 30
0.0
 10
-38.0612
 20
-10.4016
 30
0.0
 10
-38.0612
 20
-10.4016
 30
0.0
 10
-38.0612
 20
-10.4016
 30
0.0
 10
-38.0612
 20
-10.4016
 30
0.0
 10
-38.0612
 20
-13.7403
 30
0.0
 10
-38.0612
 20
-13.7403
 30
0.0
 10
-38.0612
 20
-13.7403
 30
0.0
 10
-38.0612
 20
-13.7403
 30
0.0
 10
-38.0612
 20
-17.079
 30
0.0
 10
-38.0612
 20
-17.079
 30
0.0
 10
-38.0612
 20
-17.079
 30
0.0
 10
-38.0612
 20
-17.079
 30
0.0
 10
-35.493
 20
-17.079
 30
0.0
 10
-35.493
 20
-17.079
 30
0.0
 10
-35.493
 20
-17.079
 30
0.0
 10
-35.493
 20
-17.079
 30
0.0
 10
-32.9248
 20
-17.079
 30
0.0
 10
-32.9248
 20
-17.079
 30
0.0
 10
-32.9248
 20
-17.079
 30
0.0
 10
-32.9248
 20
-17.079
 30
0.0
 10
-32.9248
 20
-13.7403
 30
0.0
 10
-32.9248
 20
-13.7403
 30
0.0
 10
-32.9248
 20
-13.7403
 30
0.0
 10
-32.9248
 20
-13.7403
 30
0.0
 10
-32.9248
 20
-10.4016
 30
0.0
 10
-32.9248
 20
-10.4016
 30
0.0
 10
-32.9248
 20
-10.4016
 30
0.0
 10
-32.9248
 20
-10.4016
 30
0.0
 10
-30.4849
 20
-10.4016
 30
0.0
 10
-30.4849
 20
-10.4016
 30
0.0
 10
-30.4849
 20
-10.4016
 30
0.0
 10
-30.4849
 20
-10.4016
 30
0.0
 10
-28.0451
 20
-10.4016
 30
0.0
 10
-28.0451
 20
-10.4016
 30
0.0
 10
-28.0451
 20
-10.4016
 30
0.0
 10
-28.0451
 20
-10.4016
 30
0.0
 10
-28.0451
 20
-13.7403
 30
0.0
 10
-28.0451
 20
-13.7403
 30
0.0
 10
-28.0451
 20
-13.7403
 30
0.0
 10
-28.0451
 20
-13.7403
 30
0.0
 10
-28.0451
 20
-17.079
 30
0.0
 10
-28.0451
 20
-17.079
 30
0.0
 10
-28.0451
 20
-17.079
 30
0.0
 10
-28.0451
 20
-17.079
 30
0.0
 10
-25.4769
 20
-17.079
 30
0.0
 10
-25.4769
 20
-17.079
 30
0.0
 10
-25.4769
 20
-17.079
 30
0.0
 10
-25.4769
 20
-17.079
 30
0.0
 10
-22.9087
 20
-17.079
 30
0.0
 10
-22.9087
 20
-17.079
 30
0.0
 10
-22.9087
 20
-17.079
 30
0.0
 10
-22.9087
 20
-17.079
 30
0.0
 10
-22.9087
 20
-13.7403
 30
0.0
 10
-22.9087
 20
-13.7403
 30
0.0
 10
-22.9087
 20
-13.7403
 30
0.0
 10
-22.9087
 20
-13.7403
 30
0.0
 10
-22.9087
 20
-10.4016
 30
0.0
 10
-22.9087
 20
-10.4016
 30
0.0
 10
-22.9087
 20
-10.4016
 30
0.0
 10
-22.9087
 20
-10.4016
 30
0.0
 10
-20.4689
 20
-10.4016
 30
0.0
 10
-20.4689
 20
-10.4016
 30
0.0
 10
-20.4689
 20
-10.4016
 30
0.0
 10
-20.4689
 20
-10.4016
 30
0.0
 10
-18.0291
 20
-10.4016
 30
0.0
 10
-18.0291
 20
-10.4016
 30
0.0
 10
-18.0291
 20
-10.4016
 30
0.0
 10
-18.0291
 20
-10.4016
 30
0.0
 10
-18.0291
 20
-13.7403
 30
0.0
 10
-18.0291
 20
-13.7403
 30
0.0
 10
-18.0291
 20
-13.7403
 30
0.0
 10
-18.0291
 20
-13.7403
 30
0.0
 10
-18.0291
 20
-17.079
 30
0.0
 10
-18.0291
 20
-17.079
 30
0.0
 10
-18.0291
 20
-17.079
 30
0.0
 10
-18.0291
 20
-17.079
 30
0.0
 10
-15.4609
 20
-17.079
 30
0.0
 10
-15.4609
 20
-17.079
 30
0.0
 10
-15.4609
 20
-17.079
 30
0.0
 10
-15.4609
 20
-17.079
 30
0.0
 10
-12.8927
 20
-17.079
 30
0.0
 10
-12.8927
 20
-17.079
 30
0.0
 10
-12.8927
 20
-17.079
 30
0.0
 10
-12.8927
 20
-17.079
 30
0.0
 10
-12.8927
 20
-13.7403
 30
0.0
 10
-12.8927
 20
-13.7403
 30
0.0
 10
-12.8927
 20
-13.7403
 30
0.0
 10
-12.8927
 20
-13.7403
 30
0.0
 10
-12.8927
 20
-10.4016
 30
0.0
 10
-12.8927
 20
-10.4016
 30
0.0
 10
-12.8927
 20
-10.4016
 30
0.0
 10
-12.8927
 20
-10.4016
 30
0.0
 10
-10.4528
 20
-10.4016
 30
0.0
 10
-10.4528
 20
-10.4016
 30
0.0
 10
-10.4528
 20
-10.4016
 30
0.0
 10
-10.4528
 20
-10.4016
 30
0.0
 10
-8.013
 20
-10.4016
 30
0.0
 10
-8.013
 20
-10.4016
 30
0.0
 10
-8.013
 20
-10.4016
 30
0.0
 10
-8.013
 20
-10.4016
 30
0.0
 10
-8.013
 20
-13.7403
 30
0.0
 10
-8.013
 20
-13.7403
 30
0.0
 10
-8.013
 20
-13.7403
 30
0.0
 10
-8.013
 20
-13.7403
 30
0.0
 10
-8.013
 20
-17.079
 30
0.0
 10
-8.013
 20
-17.079
 30
0.0
 10
-8.013
 20
-17.079
 30
0.0
 10
-8.013
 20
-17.079
 30
0.0
 10
-5.4448
 20
-17.079
 30
0.0
 10
-5.4448
 20
-17.079
 30
0.0
 10
-5.4448
 20
-17.079
 30
0.0
 10
-5.4448
 20
-17.079
 30
0.0
 10
-2.8766
 20
-17.079
 30
0.0
 10
-2.8766
 20
-17.079
 30
0.0
 10
-2.8766
 20
-17.079
 30
0.0
 10
-2.8766
 20
-17.079
 30
0.0
 10
-2.8766
 20
-13.7403
 30
0.0
 10
-2.8766
 20
-13.7403
 30
0.0
 10
-2.8766
 20
-13.7403
 30
0.0
 10
-2.8766
 20
-13.7403
 30
0.0
 10
-2.8766
 20
-10.4016
 30
0.0
 10
-2.8766
 20
-10.4016
 30
0.0
 10
-2.8766
 20
-10.4016
 30
0.0
 10
-2.8766
 20
-10.4016
 30
0.0
 10
-0.0516
 20
-10.4016
 30
0.0
 10
-0.0516
 20
-10.4016
 30
0.0
 10
-0.0516
 20
-10.4016
 30
0.0
 10
-0.0516
 20
-10.4016
 30
0.0
 10
2.7735
 20
-10.4016
 30
0.0
 10
2.7735
 20
-10.4016
 30
0.0
 10
2.7735
 20
-10.4016
 30
0.0
 10
2.7735
 20
-10.4016
 30
0.0
 10
2.7735
 20
-16.0517
 30
0.0
 10
2.7735
 20
-16.0517
 30
0.0
 10
2.7735
 20
-16.0517
 30
0.0
 10
2.7735
 20
-16.0517
 30
0.0
 10
2.7735
 20
-21.7018
 30
0.0
 10
2.7735
 20
-21.7018
 30
0.0
 10
2.7735
 20
-21.7018
 30
0.0
 10
2.7735
 20
-21.7018
 30
0.0
 10
-0.6936
 20
-21.7018
 30
0.0
 10
-0.6936
 20
-21.7018
 30
0.0
 10
-0.6936
 20
-21.7018
 30
0.0
 10
-0.6936
 20
-21.7018
 30
0.0
 10
-4.1607
 20
-21.7018
 30
0.0
 10
-4.1607
 20
-21.7018
 30
0.0
 10
-4.1607
 20
-21.7018
 30
0.0
 10
-4.1607
 20
-21.7018
 30
0.0
 10
-4.1607
 20
-24.3984
 30
0.0
 10
-4.1607
 20
-24.3984
 30
0.0
 10
-4.1607
 20
-24.3984
 30
0.0
 10
-4.1607
 20
-24.3984
 30
0.0
 10
-4.1607
 20
-27.0951
 30
0.0
 10
-4.1607
 20
-27.0951
 30
0.0
 10
-4.1607
 20
-27.0951
 30
0.0
 10
-4.1607
 20
-27.0951
 30
0.0
 10
-0.6936
 20
-27.0951
 30
0.0
 10
-0.6936
 20
-27.0951
 30
0.0
 10
-0.6936
 20
-27.0951
 30
0.0
 10
-0.6936
 20
-27.0951
 30
0.0
 10
2.7735
 20
-27.0951
 30
0.0
 10
2.7735
 20
-27.0951
 30
0.0
 10
2.7735
 20
-27.0951
 30
0.0
 10
2.7735
 20
-27.0951
 30
0.0
 10
2.7735
 20
-29.4064
 30
0.0
 10
2.7735
 20
-29.4064
 30
0.0
 10
2.7735
 20
-29.4064
 30
0.0
 10
2.7735
 20
-29.4064
 30
0.0
 10
2.7735
 20
-31.7178
 30
0.0
 10
2.7735
 20
-31.7178
 30
0.0
 10
2.7735
 20
-31.7178
 30
0.0
 10
2.7735
 20
-31.7178
 30
0.0
 10
-0.6936
 20
-31.7178
 30
0.0
 10
-0.6936
 20
-31.7178
 30
0.0
 10
-0.6936
 20
-31.7178
 30
0.0
 10
-0.6936
 20
-31.7178
 30
0.0
 10
-4.1607
 20
-31.7178
 30
0.0
 10
-4.1607
 20
-31.7178
 30
0.0
 10
-4.1607
 20
-31.7178
 30
0.0
 10
-4.1607
 20
-31.7178
 30
0.0
 10
-4.1607
 20
-34.4145
 30
0.0
 10
-4.1607
 20
-34.4145
 30
0.0
 10
-4.1607
 20
-34.4145
 30
0.0
 10
-4.1607
 20
-34.4145
 30
0.0
 10
-4.1607
 20
-37.1111
 30
0.0
 10
-4.1607
 20
-37.1111
 30
0.0
 10
-4.1607
 20
-37.1111
 30
0.0
 10
-4.1607
 20
-37.1111
 30
0.0
 10
-0.6936
 20
-37.1111
 30
0.0
 10
-0.6936
 20
-37.1111
 30
0.0
 10
-0.6936
 20
-37.1111
 30
0.0
 10
-0.6936
 20
-37.1111
 30
0.0
 10
2.7735
 20
-37.1111
 30
0.0
 10
2.7735
 20
-37.1111
 30
0.0
 10
2.7735
 20
-37.1111
 30
0.0
 10
2.7735
 20
-37.1111
 30
0.0
 10
2.7735
 20
-39.4225
 30
0.0
 10
2.7735
 20
-39.4225
 30
0.0
 10
2.7735
 20
-39.4225
 30
0.0
 10
2.7735
 20
-39.4225
 30
0.0
 10
2.7735
 20
-41.7339
 30
0.0
 10
2.7735
 20
-41.7339
 30
0.0
 10
2.7735
 20
-41.7339
 30
0.0
 10
2.7735
 20
-41.7339
 30
0.0
 10
-0.6936
 20
-41.7339
 30
0.0
 10
-0.6936
 20
-41.7339
 30
0.0
 10
-0.6936
 20
-41.7339
 30
0.0
 10
-0.6936
 20
-41.7339
 30
0.0
 10
-4.1607
 20
-41.7339
 30
0.0
 10
-4.1607
 20
-41.7339
 30
0.0
 10
-4.1607
 20
-41.7339
 30
0.0
 10
-4.1607
 20
-41.7339
 30
0.0
 10
-4.1607
 20
-44.4305
 30
0.0
 10
-4.1607
 20
-44.4305
 30
0.0
 10
-4.1607
 20
-44.4305
 30
0.0
 10
-4.1607
 20
-44.4305
 30
0.0
 10
-4.1607
 20
-47.1272
 30
0.0
 10
-4.1607
 20
-47.1272
 30
0.0
 10
-4.1607
 20
-47.1272
 30
0.0
 10
-4.1607
 20
-47.1272
 30
0.0
 10
-0.6936
 20
-47.1272
 30
0.0
 10
-0.6936
 20
-47.1272
 30
0.0
 10
-0.6936
 20
-47.1272
 30
0.0
 10
-0.6936
 20
-47.1272
 30
0.0
 10
2.7735
 20
-47.1272
 30
0.0
 10
2.7735
 20
-47.1272
 30
0.0
 10
2.7735
 20
-47.1272
 30
0.0
 10
2.7735
 20
-47.1272
 30
0.0
 10
2.7735
 20
-49.4386
 30
0.0
 10
2.7735
 20
-49.4386
 30
0.0
 10
2.7735
 20
-49.4386
 30
0.0
 10
2.7735
 20
-49.4386
 30
0.0
 10
2.7735
 20
-51.7499
 30
0.0
 10
2.7735
 20
-51.7499
 30
0.0
 10
2.7735
 20
-51.7499
 30
0.0
 10
2.7735
 20
-51.7499
 30
0.0
 10
-0.6936
 20
-51.7499
 30
0.0
 10
-0.6936
 20
-51.7499
 30
0.0
 10
-0.6936
 20
-51.7499
 30
0.0
 10
-0.6936
 20
-51.7499
 30
0.0
 10
-4.1607
 20
-51.7499
 30
0.0
 10
-4.1607
 20
-51.7499
 30
0.0
 10
-4.1607
 20
-51.7499
 30
0.0
 10
-4.1607
 20
-51.7499
 30
0.0
 10
-4.1607
 20
-54.4466
 30
0.0
 10
-4.1607
 20
-54.4466
 30
0.0
 10
-4.1607
 20
-54.4466
 30
0.0
 10
-4.1607
 20
-54.4466
 30
0.0
 10
-4.1607
 20
-57.1432
 30
0.0
 10
-4.1607
 20
-57.1432
 30
0.0
 10
-4.1607
 20
-57.1432
 30
0.0
 10
-4.1607
 20
-57.1432
 30
0.0
 10
-0.6936
 20
-57.1432
 30
0.0
 10
-0.6936
 20
-57.1432
 30
0.0
 10
-0.6936
 20
-57.1432
 30
0.0
 10
-0.6936
 20
-57.1432
 30
0.0
 10
2.7735
 20
-57.1432
 30
0.0
 10
2.7735
 20
-57.1432
 30
0.0
 10
2.7735
 20
-57.1432
 30
0.0
 10
2.7735
 20
-57.1432
 30
0.0
 10
2.7735
 20
-63.4354
 30
0.0
 10
2.7735
 20
-63.4354
 30
0.0
 10
2.7735
 20
-63.4354
 30
0.0
 10
2.7735
 20
-63.4354
 30
0.0
 10
2.7735
 20
-69.7275
 30
0.0
 10
2.7735
 20
-69.7275
 30
0.0
 10
2.7735
 20
-69.7275
 30
0.0
 10
2.7735
 20
-69.7275
 30
0.0
 10
-29.9713
 20
-69.7275
 30
0.0
 10
-29.9713
 20
-69.7275
 30
0.0
 10
-29.9713
 20
-69.7275
 30
0.0
 10
-29.9713
 20
-69.7275
 30
0.0
 10
-62.7161
 20
-69.7275
 30
0.0
 10
-62.7161
 20
-69.7275
 30
0.0
 10
-62.7161
 20
-69.7275
 30
0.0
 10
-62.7161
 20
-69.7275
 30
0.0
 10
-62.7161
 20
-63.4354
 30
0.0
 10
-62.7161
 20
-63.4354
 30
0.0
 10
-62.7161
 20
-63.4354
 30
0.0
 10
-62.7161
 20
-63.4354
 30
0.0
 10
-62.7161
 20
-63.4354
 30
0.0
 10
-62.7161
 20
-63.4354
 30
0.0
  0
SPLINE
  5
6B
330
1F
100
AcDbEntity
  8
LAYER_1
100
AcDbSpline
210
0.0
220
0.0
230
1.0
 70
     8
 71
     3
 72
   232
 73
   228
 74
     0
 42
0.0000000001
 43
0.0000000001
 40
0.0
 40
0.0
 40
0.0
 40
0.0
 40
0.0175438596491228
 40
0.0175438596491228
 40
0.0175438596491228
 40
0.0175438596491228
 40
0.0350877192982456
 40
0.0350877192982456
 40
0.0350877192982456
 40
0.0350877192982456
 40
0.0526315789473684
 40
0.0526315789473684
 40
0.0526315789473684
 40
0.0526315789473684
 40
0.0701754385964912
 40
0.0701754385964912
 40
0.0701754385964912
 40
0.0701754385964912
 40
0.087719298245614
 40
0.087719298245614
 40
0.087719298245614
 40
0.087719298245614
 40
0.1052631578947368
 40
0.1052631578947368
 40
0.1052631578947368
 40
0.1052631578947368
 40
0.1228070175438596
 40
0.1228070175438596
 40
0.1228070175438596
 40
0.1228070175438596
 40
0.1403508771929824
 40
0.1403508771929824
 40
0.1403508771929824
 40
0.1403508771929824
 40
0.1578947368421053
 40
0.1578947368421053
 40
0.1578947368421053
 40
0.1578947368421053
 40
0.1754385964912281
 40
0.1754385964912281
 40
0.1754385964912281
 40
0.1754385964912281
 40
0.1929824561403509
 40
0.1929824561403509
 40
0.1929824561403509
 40
0.1929824561403509
 40
0.2105263157894737
 40
0.2105263157894737
 40
0.2105263157894737
 40
0.2105263157894737
 40
0.2280701754385965
 40
0.2280701754385965
 40
0.2280701754385965
 40
0.2280701754385965
 40
0.2456140350877193
 40
0.2456140350877193
 40
0.2456140350877193
 40
0.2456140350877193
 40
0.2631578947368421
 40
0.2631578947368421
 40
0.2631578947368421
 40
0.2631578947368421
 40
0.2807017543859649
 40
0.2807017543859649
 40
0.2807017543859649
 40
0.2807017543859649
 40
0.2982456140350877
 40
0.2982456140350877
 40
0.2982456140350877
 40
0.2982456140350877
 40
0.3157894736842105
 40
0.3157894736842105
 40
0.3157894736842105
 40
0.3157894736842105
 40
0.3333333333333333
 40
0.3333333333333333
 40
0.3333333333333333
 40
0.3333333333333333
 40
0.3508771929824561
 40
0.3508771929824561
 40
0.3508771929824561
 40
0.3508771929824561
 40
0.3684210526315789
 40
0.3684210526315789
 40
0.3684210526315789
 40
0.3684210526315789
 40
0.3859649122807017
 40
0.3859649122807017
 40
0.3859649122807017
 40
0.3859649122807017
 40
0.4035087719298245
 40
0.4035087719298245
 40
0.4035087719298245
 40
0.4035087719298245
 40
0.4210526315789473
 40
0.4210526315789473
 40
0.4210526315789473
 40
0.4210526315789473
 40
0.4385964912280702
 40
0.4385964912280702
 40
0.4385964912280702
 40
0.4385964912280702
 40
0.456140350877193
 40
0.456140350877193
 40
0.456140350877193
 40
0.456140350877193
 40
0.4736842105263158
 40
0.4736842105263158
 40
0.4736842105263158
 40
0.4736842105263158
 40
0.4912280701754386
 40
0.4912280701754386
 40
0.4912280701754386
 40
0.4912280701754386
 40
0.5087719298245614
 40
0.5087719298245614
 40
0.5087719298245614
 40
0.5087719298245614
 40
0.5263157894736843
 40
0.5263157894736843
 40
0.5263157894736843
 40
0.5263157894736843
 40
0.5438596491228072
 40
0.5438596491228072
 40
0.5438596491228072
 40
0.5438596491228072
 40
0.56140350877193
 40
0.56140350877193
 40
0.56140350877193
 40
0.56140350877193
 40
0.5789473684210529
 40
0.5789473684210529
 40
0.5789473684210529
 40
0.5789473684210529
 40
0.5964912280701757
 40
0.5964912280701757
 40
0.5964912280701757
 40
0.5964912280701757
 40
0.6140350877192986
 40
0.6140350877192986
 40
0.6140350877192986
 40
0.6140350877192986
 40
0.6315789473684215
 40
0.6315789473684215
 40
0.6315789473684215
 40
0.6315789473684215
 40
0.6491228070175443
 40
0.6491228070175443
 40
0.6491228070175443
 40
0.6491228070175443
 40
0.6666666666666672
 40
0.6666666666666672
 40
0.6666666666666672
 40
0.6666666666666672
 40
0.68421052631579
 40
0.68421052631579
 40
0.68421052631579
 40
0.68421052631579
 40
0.7017543859649129
 40
0.7017543859649129
 40
0.7017543859649129
 40
0.7017543859649129
 40
0.7192982456140358
 40
0.7192982456140358
 40
0.7192982456140358
 40
0.7192982456140358
 40
0.7368421052631586
 40
0.7368421052631586
 40
0.7368421052631586
 40
0.7368421052631586
 40
0.7543859649122815
 40
0.7543859649122815
 40
0.7543859649122815
 40
0.7543859649122815
 40
0.7719298245614044
 40
0.7719298245614044
 40
0.7719298245614044
 40
0.7719298245614044
 40
0.7894736842105272
 40
0.7894736842105272
 40
0.7894736842105272
 40
0.7894736842105272
 40
0.8070175438596501
 40
0.8070175438596501
 40
0.8070175438596501
 40
0.8070175438596501
 40
0.8245614035087729
 40
0.8245614035087729
 40
0.8245614035087729
 40
0.8245614035087729
 40
0.8421052631578958
 40
0.8421052631578958
 40
0.8421052631578958
 40
0.8421052631578958
 40
0.8596491228070187
 40
0.8596491228070187
 40
0.8596491228070187
 40
0.8596491228070187
 40
0.8771929824561415
 40
0.8771929824561415
 40
0.8771929824561415
 40
0.8771929824561415
 40
0.8947368421052644
 40
0.8947368421052644
 40
0.8947368421052644
 40
0.8947368421052644
 40
0.9122807017543872
 40
0.9122807017543872
 40
0.9122807017543872
 40
0.9122807017543872
 40
0.9298245614035101
 40
0.9298245614035101
 40
0.9298245614035101
 40
0.9298245614035101
 40
0.947368421052633
 40
0.947368421052633
 40
0.947368421052633
 40
0.947368421052633
 40
0.9649122807017558
 40
0.9649122807017558
 40
0.9649122807017558
 40
0.9649122807017558
 40
0.9824561403508787
 40
0.9824561403508787
 40
0.9824561403508787
 40
0.9824561403508787
 40
1.0
 40
1.0
 40
1.0
 40
1.0
 10
-28.9394
 20
83.8641
 30
0.0
 10
-28.9394
 20
83.8641
 30
0.0
 10
-46.759
 20
101.7102
 30
0.0
 10
-46.759
 20
101.7102
 30
0.0
 10
-46.759
 20
101.7102
 30
0.0
 10
-46.759
 20
101.7102
 30
0.0
 10
-46.4005
 20
101.7167
 30
0.0
 10
-46.4005
 20
101.7167
 30
0.0
 10
-46.4005
 20
101.7167
 30
0.0
 10
-46.4005
 20
101.7167
 30
0.0
 10
-43.7039
 20
101.7167
 30
0.0
 10
-43.7039
 20
101.7167
 30
0.0
 10
-43.7039
 20
101.7167
 30
0.0
 10
-43.7039
 20
101.7167
 30
0.0
 10
-41.0072
 20
101.7167
 30
0.0
 10
-41.0072
 20
101.7167
 30
0.0
 10
-41.0072
 20
101.7167
 30
0.0
 10
-41.0072
 20
101.7167
 30
0.0
 10
-41.0072
 20
105.0554
 30
0.0
 10
-41.0072
 20
105.0554
 30
0.0
 10
-41.0072
 20
105.0554
 30
0.0
 10
-41.0072
 20
105.0554
 30
0.0
 10
-41.0072
 20
108.3941
 30
0.0
 10
-41.0072
 20
108.3941
 30
0.0
 10
-41.0072
 20
108.3941
 30
0.0
 10
-41.0072
 20
108.3941
 30
0.0
 10
-38.6959
 20
108.3941
 30
0.0
 10
-38.6959
 20
108.3941
 30
0.0
 10
-38.6959
 20
108.3941
 30
0.0
 10
-38.6959
 20
108.3941
 30
0.0
 10
-36.3845
 20
108.3941
 30
0.0
 10
-36.3845
 20
108.3941
 30
0.0
 10
-36.3845
 20
108.3941
 30
0.0
 10
-36.3845
 20
108.3941
 30
0.0
 10
-36.3845
 20
105.0554
 30
0.0
 10
-36.3845
 20
105.0554
 30
0.0
 10
-36.3845
 20
105.0554
 30
0.0
 10
-36.3845
 20
105.0554
 30
0.0
 10
-36.3845
 20
101.7167
 30
0.0
 10
-36.3845
 20
101.7167
 30
0.0
 10
-36.3845
 20
101.7167
 30
0.0
 10
-36.3845
 20
101.7167
 30
0.0
 10
-33.6878
 20
101.7167
 30
0.0
 10
-33.6878
 20
101.7167
 30
0.0
 10
-33.6878
 20
101.7167
 30
0.0
 10
-33.6878
 20
101.7167
 30
0.0
 10
-30.9912
 20
101.7167
 30
0.0
 10
-30.9912
 20
101.7167
 30
0.0
 10
-30.9912
 20
101.7167
 30
0.0
 10
-30.9912
 20
101.7167
 30
0.0
 10
-30.9912
 20
105.0554
 30
0.0
 10
-30.9912
 20
105.0554
 30
0.0
 10
-30.9912
 20
105.0554
 30
0.0
 10
-30.9912
 20
105.0554
 30
0.0
 10
-30.9912
 20
108.3941
 30
0.0
 10
-30.9912
 20
108.3941
 30
0.0
 10
-30.9912
 20
108.3941
 30
0.0
 10
-30.9912
 20
108.3941
 30
0.0
 10
-28.6798
 20
108.3941
 30
0.0
 10
-28.6798
 20
108.3941
 30
0.0
 10
-28.6798
 20
108.3941
 30
0.0
 10
-28.6798
 20
108.3941
 30
0.0
 10
-26.3684
 20
108.3941
 30
0.0
 10
-26.3684
 20
108.3941
 30
0.0
 10
-26.3684
 20
108.3941
 30
0.0
 10
-26.3684
 20
108.3941
 30
0.0
 10
-26.3684
 20
105.0554
 30
0.0
 10
-26.3684
 20
105.0554
 30
0.0
 10
-26.3684
 20
105.0554
 30
0.0
 10
-26.3684
 20
105.0554
 30
0.0
 10
-26.3684
 20
101.7167
 30
0.0
 10
-26.3684
 20
101.7167
 30
0.0
 10
-26.3684
 20
101.7167
 30
0.0
 10
-26.3684
 20
101.7167
 30
0.0
 10
-23.6718
 20
101.7167
 30
0.0
 10
-23.6718
 20
101.7167
 30
0.0
 10
-23.6718
 20
101.7167
 30
0.0
 10
-23.6718
 20
101.7167
 30
0.0
 10
-20.9751
 20
101.7167
 30
0.0
 10
-20.9751
 20
101.7167
 30
0.0
 10
-20.9751
 20
101.7167
 30
0.0
 10
-20.9751
 20
101.7167
 30
0.0
 10
-20.9751
 20
105.0554
 30
0.0
 10
-20.9751
 20
105.0554
 30
0.0
 10
-20.9751
 20
105.0554
 30
0.0
 10
-20.9751
 20
105.0554
 30
0.0
 10
-20.9751
 20
108.3941
 30
0.0
 10
-20.9751
 20
108.3941
 30
0.0
 10
-20.9751
 20
108.3941
 30
0.0
 10
-20.9751
 20
108.3941
 30
0.0
 10
-18.6637
 20
108.3941
 30
0.0
 10
-18.6637
 20
108.3941
 30
0.0
 10
-18.6637
 20
108.3941
 30
0.0
 10
-18.6637
 20
108.3941
 30
0.0
 10
-16.3524
 20
108.3941
 30
0.0
 10
-16.3524
 20
108.3941
 30
0.0
 10
-16.3524
 20
108.3941
 30
0.0
 10
-16.3524
 20
108.3941
 30
0.0
 10
-16.3524
 20
105.0554
 30
0.0
 10
-16.3524
 20
105.0554
 30
0.0
 10
-16.3524
 20
105.0554
 30
0.0
 10
-16.3524
 20
105.0554
 30
0.0
 10
-16.3524
 20
105.0554
 30
0.0
 10
-16.3524
 20
105.0554
 30
0.0
 10
-16.3524
 20
105.0554
 30
0.0
 10
-16.3524
 20
105.0554
 30
0.0
 10
-16.3524
 20
101.7168
 30
0.0
 10
-16.3524
 20
101.7168
 30
0.0
 10
-16.3524
 20
101.7168
 30
0.0
 10
-16.3524
 20
101.7168
 30
0.0
 10
-13.7841
 20
101.7168
 30
0.0
 10
-13.7841
 20
101.7168
 30
0.0
 10
-13.7841
 20
101.7168
 30
0.0
 10
-13.7841
 20
101.7168
 30
0.0
 10
-11.2159
 20
101.7168
 30
0.0
 10
-11.2159
 20
101.7168
 30
0.0
 10
-11.2159
 20
101.7168
 30
0.0
 10
-11.2159
 20
101.7168
 30
0.0
 10
-11.2159
 20
99.2769
 30
0.0
 10
-11.2159
 20
99.2769
 30
0.0
 10
-11.2159
 20
99.2769
 30
0.0
 10
-11.2159
 20
99.2769
 30
0.0
 10
-11.2159
 20
96.8371
 30
0.0
 10
-11.2159
 20
96.8371
 30
0.0
 10
-11.2159
 20
96.8371
 30
0.0
 10
-11.2159
 20
96.8371
 30
0.0
 10
-7.8772
 20
96.8371
 30
0.0
 10
-7.8772
 20
96.8371
 30
0.0
 10
-7.8772
 20
96.8371
 30
0.0
 10
-7.8772
 20
96.8371
 30
0.0
 10
-4.5385
 20
96.8371
 30
0.0
 10
-4.5385
 20
96.8371
 30
0.0
 10
-4.5385
 20
96.8371
 30
0.0
 10
-4.5385
 20
96.8371
 30
0.0
 10
-4.5385
 20
94.3973
 30
0.0
 10
-4.5385
 20
94.3973
 30
0.0
 10
-4.5385
 20
94.3973
 30
0.0
 10
-4.5385
 20
94.3973
 30
0.0
 10
-4.5385
 20
91.9575
 30
0.0
 10
-4.5385
 20
91.9575
 30
0.0
 10
-4.5385
 20
91.9575
 30
0.0
 10
-4.5385
 20
91.9575
 30
0.0
 10
-7.8772
 20
91.9575
 30
0.0
 10
-7.8772
 20
91.9575
 30
0.0
 10
-7.8772
 20
91.9575
 30
0.0
 10
-7.8772
 20
91.9575
 30
0.0
 10
-11.2159
 20
91.9575
 30
0.0
 10
-11.2159
 20
91.9575
 30
0.0
 10
-11.2159
 20
91.9575
 30
0.0
 10
-11.2159
 20
91.9575
 30
0.0
 10
-11.2159
 20
89.3893
 30
0.0
 10
-11.2159
 20
89.3893
 30
0.0
 10
-11.2159
 20
89.3893
 30
0.0
 10
-11.2159
 20
89.3893
 30
0.0
 10
-11.2159
 20
86.8211
 30
0.0
 10
-11.2159
 20
86.8211
 30
0.0
 10
-11.2159
 20
86.8211
 30
0.0
 10
-11.2159
 20
86.8211
 30
0.0
 10
-7.8772
 20
86.8211
 30
0.0
 10
-7.8772
 20
86.8211
 30
0.0
 10
-7.8772
 20
86.8211
 30
0.0
 10
-7.8772
 20
86.8211
 30
0.0
 10
-4.5385
 20
86.8211
 30
0.0
 10
-4.5385
 20
86.8211
 30
0.0
 10
-4.5385
 20
86.8211
 30
0.0
 10
-4.5385
 20
86.8211
 30
0.0
 10
-4.5385
 20
84.3813
 30
0.0
 10
-4.5385
 20
84.3813
 30
0.0
 10
-4.5385
 20
84.3813
 30
0.0
 10
-4.5385
 20
84.3813
 30
0.0
 10
-4.5385
 20
81.9415
 30
0.0
 10
-4.5385
 20
81.9415
 30
0.0
 10
-4.5385
 20
81.9415
 30
0.0
 10
-4.5385
 20
81.9415
 30
0.0
 10
-7.8772
 20
81.9415
 30
0.0
 10
-7.8772
 20
81.9415
 30
0.0
 10
-7.8772
 20
81.9415
 30
0.0
 10
-7.8772
 20
81.9415
 30
0.0
 10
-11.2159
 20
81.9415
 30
0.0
 10
-11.2159
 20
81.9415
 30
0.0
 10
-11.2159
 20
81.9415
 30
0.0
 10
-11.2159
 20
81.9415
 30
0.0
 10
-11.2159
 20
79.3733
 30
0.0
 10
-11.2159
 20
79.3733
 30
0.0
 10
-11.2159
 20
79.3733
 30
0.0
 10
-11.2159
 20
79.3733
 30
0.0
 10
-11.2159
 20
76.805
 30
0.0
 10
-11.2159
 20
76.805
 30
0.0
 10
-11.2159
 20
76.805
 30
0.0
 10
-11.2159
 20
76.805
 30
0.0
 10
-7.8772
 20
76.805
 30
0.0
 10
-7.8772
 20
76.805
 30
0.0
 10
-7.8772
 20
76.805
 30
0.0
 10
-7.8772
 20
76.805
 30
0.0
 10
-4.5385
 20
76.805
 30
0.0
 10
-4.5385
 20
76.805
 30
0.0
 10
-4.5385
 20
76.805
 30
0.0
 10
-4.5385
 20
76.805
 30
0.0
 10
-4.5385
 20
74.3652
 30
0.0
 10
-4.5385
 20
74.3652
 30
0.0
 10
-4.5385
 20
74.3652
 30
0.0
 10
-4.5385
 20
74.3652
 30
0.0
 10
-4.5385
 20
71.9254
 30
0.0
 10
-4.5385
 20
71.9254
 30
0.0
 10
-4.5385
 20
71.9254
 30
0.0
 10
-4.5385
 20
71.9254
 30
0.0
 10
-7.8772
 20
71.9254
 30
0.0
 10
-7.8772
 20
71.9254
 30
0.0
 10
-7.8772
 20
71.9254
 30
0.0
 10
-7.8772
 20
71.9254
 30
0.0
 10
-11.2159
 20
71.9254
 30
0.0
 10
-11.2159
 20
71.9254
 30
0.0
 10
-11.2159
 20
71.9254
 30
0.0
 10
-11.2159
 20
71.9254
 30
0.0
 10
-11.2159
 20
69.614
 30
0.0
 10
-11.2159
 20
69.614
 30
0.0
 10
-11.2159
 20
69.614
 30
0.0
 10
-11.2159
 20
69.614
 30
0.0
 10
-11.2573
 20
67.3026
 30
0.0
 10
-11.2573
 20
67.3026
 30
0.0
 10
-11.2573
 20
67.3026
 30
0.0
 10
-11.2573
 20
67.3026
 30
0.0
 10
-11.2639
 20
66.1602
 30
0.0
 10
-11.2639
 20
66.1602
 30
0.0
 10
-11.2639
 20
66.1602
 30
0.0
 10
-11.2639
 20
66.1602
 30
0.0
 10
-28.9366
 20
83.8676
 30
0.0
 10
-28.9366
 20
83.8676
 30
0.0
  0
ENDSEC
  0
SECTION
  2
OBJECTS
  0
DICTIONARY
  5
C
330
0
100
AcDbDictionary
  3
ACAD_GROUP
350
D
  3
ACAD_LAYOUT
350
1A
  3
ACAD_MLEADERSTYLE
350
8F
  3
ACAD_MLINESTYLE
350
17
  3
ACAD_PLOTSETTINGS
350
19
  3
ACAD_SCALELIST
350
3B
  3
ACAD_TABLESTYLE
350
8E
  3
ACAD_VISUALSTYLE
350
2A
  3
ACDBHEADERROUNDTRIPXREC
350
6C
  3
ACDBVARIABLEDICTIONARY
350
8C
  0
DICTIONARY
  5
D
102
{ACAD_REACTORS
330
C
102
}
330
C
100
AcDbDictionary
  0
DICTIONARY
  5
1A
102
{ACAD_REACTORS
330
C
102
}
330
C
100
AcDbDictionary
  0
DICTIONARY
  5
8F
102
{ACAD_REACTORS
330
C
102
}
330
C
100
AcDbDictionary
  0
DICTIONARY
  5
17
102
{ACAD_REACTORS
330
C
102
}
330
C
100
AcDbDictionary
  3
STANDARD
350
18
  0
DICTIONARY
  5
19
102
{ACAD_REACTORS
330
C
102
}
330
C
100
AcDbDictionary
  0
DICTIONARY
  5
3B
102
{ACAD_REACTORS
330
C
102
}
330
C
100
AcDbDictionary
  3
A0
350
3C
  3
A1
350
3D
  3
A2
350
3E
  3
A3
350
3F
  3
A4
350
40
  3
A5
350
41
  3
A6
350
42
  3
A7
350
43
  3
A8
350
44
  3
A9
350
45
  3
B0
350
46
  3
B1
350
47
  3
B2
350
48
  3
B3
350
49
  3
B4
350
4A
  3
B5
350
4B
  3
B6
350
4C
  3
B7
350
4D
  3
B8
350
4E
  3
B9
350
4F
  3
C0
350
50
  3
C1
350
51
  3
C2
350
52
  3
C3
350
53
  3
C4
350
54
  3
C5
350
55
  3
C6
350
56
  3
C7
350
57
  3
C8
350
58
  3
C9
350
59
  3
D0
350
5A
  3
D1
350
5B
  3
D2
350
5C
  0
DICTIONARY
  5
8E
102
{ACAD_REACTORS
330
C
102
}
330
C
100
AcDbDictionary
  0
DICTIONARY
  5
2A
102
{ACAD_REACTORS
330
C
102
}
330
C
100
AcDbDictionary
  3
2DWIREFRAME
350
2F
  3
3D_HIDDEN
350
31
  3
3DWIREFRAME
350
30
  3
BASIC
350
32
  3
BRIGHTEN
350
36
  3
COLORCHANGE
350
3A
  3
CONCEPTUAL
350
34
  3
DIM
350
35
  3
FACEPATTERN
350
39
  3
FLAT
350
2B
  3
FLATWITHEDGES
350
2C
  3
GOURAUD
350
2D
  3
GOURAUDWITHEDGES
350
2E
  3
LINEPATTERN
350
38
  3
REALISTIC
350
33
  3
THICKEN
350
37
  0
DICTIONARY
  5
6C
102
{ACAD_REACTORS
330
C
102
}
330
C
100
AcDbDictionary
  3
CEPSNTYPE
350
75
  3
DIMSTYLEDATA
350
8B
  3
FINGERPRINTGUID
350
76
  3
HYPERLINKBASE
350
6F
  3
INSUNITS
350
74
  3
LAYOUTDICT
350
71
  3
LWETCUNION
350
73
  3
PLOTSETDICT
350
72
  3
PSVPSCALE
350
78
  3
PUCSBASE
350
7B
  3
PUCSORGBACK
350
81
  3
PUCSORGBOTTOM
350
7D
  3
PUCSORGFRONT
350
80
  3
PUCSORGLEFT
350
7E
  3
PUCSORGRIGHT
350
7F
  3
PUCSORGTOP
350
7C
  3
PUCSORTHOREF
350
79
  3
PUCSORTHOVIEW
350
7A
  3
STYLESHEET
350
70
  3
TSTACKALIGN
350
6D
  3
TSTACKSIZE
350
6E
  3
UCSBASE
350
84
  3
UCSORGBACK
350
8A
  3
UCSORGBOTTOM
350
86
  3
UCSORGFRONT
350
89
  3
UCSORGLEFT
350
87
  3
UCSORGRIGHT
350
88
  3
UCSORGTOP
350
85
  3
UCSORTHOREF
350
82
  3
UCSORTHOVIEW
350
83
  3
VERSIONGUID
350
77
  0
DICTIONARY
  5
8C
102
{ACAD_REACTORS
330
C
102
}
330
C
100
AcDbDictionary
  3
CANNOSCALE
350
8D
  0
MLINESTYLE
  5
18
102
{ACAD_REACTORS
330
17
102
}
330
17
100
AcDbMlineStyle
  2
Standard
 70
     0
  3

 62
   256
 51
90.0
 52
90.0
 71
     2
 49
0.5
 62
   256
  6
BYLAYER
 49
-0.5
 62
   256
  6
BYLAYER
  0
SCALE
  5
3C
102
{ACAD_REACTORS
330
3B
102
}
330
3B
100
AcDbScale
 70
     0
300
1:1
140
1.0
141
1.0
290
     1
  0
SCALE
  5
3D
102
{ACAD_REACTORS
330
3B
102
}
330
3B
100
AcDbScale
 70
     0
300
1:2
140
1.0
141
2.0
290
     0
  0
SCALE
  5
3E
102
{ACAD_REACTORS
330
3B
102
}
330
3B
100
AcDbScale
 70
     0
300
1:4
140
1.0
141
4.0
290
     0
  0
SCALE
  5
3F
102
{ACAD_REACTORS
330
3B
102
}
330
3B
100
AcDbScale
 70
     0
300
1:5
140
1.0
141
5.0
290
     0
  0
SCALE
  5
40
102
{ACAD_REACTORS
330
3B
102
}
330
3B
100
AcDbScale
 70
     0
300
1:8
140
1.0
141
8.0
290
     0
  0
SCALE
  5
41
102
{ACAD_REACTORS
330
3B
102
}
330
3B
100
AcDbScale
 70
     0
300
1:10
140
1.0
141
10.0
290
     0
  0
SCALE
  5
42
102
{ACAD_REACTORS
330
3B
102
}
330
3B
100
AcDbScale
 70
     0
300
1:16
140
1.0
141
16.0
290
     0
  0
SCALE
  5
43
102
{ACAD_REACTORS
330
3B
102
}
330
3B
100
AcDbScale
 70
     0
300
1:20
140
1.0
141
20.0
290
     0
  0
SCALE
  5
44
102
{ACAD_REACTORS
330
3B
102
}
330
3B
100
AcDbScale
 70
     0
300
1:30
140
1.0
141
30.0
290
     0
  0
SCALE
  5
45
102
{ACAD_REACTORS
330
3B
102
}
330
3B
100
AcDbScale
 70
     0
300
1:40
140
1.0
141
40.0
290
     0
  0
SCALE
  5
46
102
{ACAD_REACTORS
330
3B
102
}
330
3B
100
AcDbScale
 70
     0
300
1:50
140
1.0
141
50.0
290
     0
  0
SCALE
  5
47
102
{ACAD_REACTORS
330
3B
102
}
330
3B
100
AcDbScale
 70
     0
300
1:100
140
1.0
141
100.0
290
     0
  0
SCALE
  5
48
102
{ACAD_REACTORS
330
3B
102
}
330
3B
100
AcDbScale
 70
     0
300
2:1
140
2.0
141
1.0
290
     0
  0
SCALE
  5
49
102
{ACAD_REACTORS
330
3B
102
}
330
3B
100
AcDbScale
 70
     0
300
4:1
140
4.0
141
1.0
290
     0
  0
SCALE
  5
4A
102
{ACAD_REACTORS
330
3B
102
}
330
3B
100
AcDbScale
 70
     0
300
8:1
140
8.0
141
1.0
290
     0
  0
SCALE
  5
4B
102
{ACAD_REACTORS
330
3B
102
}
330
3B
100
AcDbScale
 70
     0
300
10:1
140
10.0
141
1.0
290
     0
  0
SCALE
  5
4C
102
{ACAD_REACTORS
330
3B
102
}
330
3B
100
AcDbScale
 70
     0
300
100:1
140
100.0
141
1.0
290
     0
  0
SCALE
  5
4D
102
{ACAD_REACTORS
330
3B
102
}
330
3B
100
AcDbScale
 70
     0
300
1/128" = 1'-0"
140
0.0078125
141
12.0
290
     0
  0
SCALE
  5
4E
102
{ACAD_REACTORS
330
3B
102
}
330
3B
100
AcDbScale
 70
     0
300
1/64" = 1'-0"
140
0.015625
141
12.0
290
     0
  0
SCALE
  5
4F
102
{ACAD_REACTORS
330
3B
102
}
330
3B
100
AcDbScale
 70
     0
300
1/32" = 1'-0"
140
0.03125
141
12.0
290
     0
  0
SCALE
  5
50
102
{ACAD_REACTORS
330
3B
102
}
330
3B
100
AcDbScale
 70
     0
300
1/16" = 1'-0"
140
0.0625
141
12.0
290
     0
  0
SCALE
  5
51
102
{ACAD_REACTORS
330
3B
102
}
330
3B
100
AcDbScale
 70
     0
300
3/32" = 1'-0"
140
0.09375
141
12.0
290
     0
  0
SCALE
  5
52
102
{ACAD_REACTORS
330
3B
102
}
330
3B
100
AcDbScale
 70
     0
300
1/8" = 1'-0"
140
0.125
141
12.0
290
     0
  0
SCALE
  5
53
102
{ACAD_REACTORS
330
3B
102
}
330
3B
100
AcDbScale
 70
     0
300
3/16" = 1'-0"
140
0.1875
141
12.0
290
     0
  0
SCALE
  5
54
102
{ACAD_REACTORS
330
3B
102
}
330
3B
100
AcDbScale
 70
     0
300
1/4" = 1'-0"
140
0.25
141
12.0
290
     0
  0
SCALE
  5
55
102
{ACAD_REACTORS
330
3B
102
}
330
3B
100
AcDbScale
 70
     0
300
3/8" = 1'-0"
140
0.375
141
12.0
290
     0
  0
SCALE
  5
56
102
{ACAD_REACTORS
330
3B
102
}
330
3B
100
AcDbScale
 70
     0
300
1/2" = 1'-0"
140
0.5
141
12.0
290
     0
  0
SCALE
  5
57
102
{ACAD_REACTORS
330
3B
102
}
330
3B
100
AcDbScale
 70
     0
300
3/4" = 1'-0"
140
0.75
141
12.0
290
     0
  0
SCALE
  5
58
102
{ACAD_REACTORS
330
3B
102
}
330
3B
100
AcDbScale
 70
     0
300
1" = 1'-0"
140
1.0
141
12.0
290
     0
  0
SCALE
  5
59
102
{ACAD_REACTORS
330
3B
102
}
330
3B
100
AcDbScale
 70
     0
300
1-1/2" = 1'-0"
140
1.5
141
12.0
290
     0
  0
SCALE
  5
5A
102
{ACAD_REACTORS
330
3B
102
}
330
3B
100
AcDbScale
 70
     0
300
3" = 1'-0"
140
3.0
141
12.0
290
     0
  0
SCALE
  5
5B
102
{ACAD_REACTORS
330
3B
102
}
330
3B
100
AcDbScale
 70
     0
300
6" = 1'-0"
140
6.0
141
12.0
290
     0
  0
SCALE
  5
5C
102
{ACAD_REACTORS
330
3B
102
}
330
3B
100
AcDbScale
 70
     0
300
1'-0" = 1'-0"
140
12.0
141
12.0
290
     0
  0
VISUALSTYLE
  5
2F
102
{ACAD_REACTORS
330
2A
102
}
330
2A
100
AcDbVisualStyle
  2
2dWireframe
 70
     4
 71
     0
 72
     2
 73
     0
 90
        0
 40
-0.6
 41
-30.0
 62
     5
 63
     7
 74
     1
 91
        4
 64
     7
 65
   257
 75
     1
175
     1
 42
1.0
 92
        0
 66
   257
 43
1.0
 76
     1
 77
     6
 78
     2
 67
     7
 79
     5
170
     0
171
     0
290
     0
174
     0
 93
        1
 44
0.0
173
     0
291
     0
 45
0.0
1001
ACAD
1000
AcDbSavedByObjectVersion
1070
     0
  0
VISUALSTYLE
  5
31
102
{ACAD_REACTORS
330
2A
102
}
330
2A
100
AcDbVisualStyle
  2
3D Hidden
 70
     6
 71
     1
 72
     2
 73
     2
 90
        0
 40
-0.6
 41
-30.0
 62
     5
 63
     7
 74
     2
 91
        2
 64
     7
 65
   257
 75
     2
175
     1
 42
40.0
 92
        0
 66
   257
 43
1.0
 76
     1
 77
     6
 78
     2
 67
     7
 79
     3
170
     0
171
     0
290
     0
174
     0
 93
        1
 44
0.0
173
     0
291
     0
 45
0.0
1001
ACAD
1000
AcDbSavedByObjectVersion
1070
     0
  0
VISUALSTYLE
  5
30
102
{ACAD_REACTORS
330
2A
102
}
330
2A
100
AcDbVisualStyle
  2
3dWireframe
 70
     5
 71
     0
 72
     2
 73
     0
 90
        0
 40
-0.6
 41
-30.0
 62
     5
 63
     7
 74
     1
 91
        4
 64
     7
 65
   257
 75
     1
175
     1
 42
1.0
 92
        0
 66
   257
 43
1.0
 76
     1
 77
     6
 78
     2
 67
     7
 79
     5
170
     0
171
     0
290
     0
174
     0
 93
        1
 44
0.0
173
     0
291
     0
 45
0.0
1001
ACAD
1000
AcDbSavedByObjectVersion
1070
     0
  0
VISUALSTYLE
  5
32
102
{ACAD_REACTORS
330
2A
102
}
330
2A
100
AcDbVisualStyle
  2
Basic
 70
     7
 71
     1
 72
     0
 73
     1
 90
        0
 40
-0.6
 41
-30.0
 62
     5
 63
     7
 74
     0
 91
        4
 64
     7
 65
   257
 75
     1
175
     1
 42
1.0
 92
        8
 66
     7
 43
1.0
 76
     1
 77
     6
 78
     2
 67
     7
 79
     5
170
     0
171
     0
290
     0
174
     0
 93
        1
 44
0.0
173
     0
291
     1
 45
0.0
1001
ACAD
1000
AcDbSavedByObjectVersion
1070
     0
  0
VISUALSTYLE
  5
36
102
{ACAD_REACTORS
330
2A
102
}
330
2A
100
AcDbVisualStyle
  2
Brighten
 70
    12
 71
     2
 72
     2
 73
     0
 90
        0
 40
-0.6
 41
-30.0
 62
     5
 63
     7
 74
     1
 91
        4
 64
     7
 65
   257
 75
     1
175
     1
 42
1.0
 92
        8
 66
     7
 43
1.0
 76
     1
 77
     6
 78
     2
 67
     7
 79
     5
170
     0
171
     0
290
     0
174
     0
 93
        1
 44
50.0
173
     0
291
     1
 45
0.0
1001
ACAD
1000
AcDbSavedByObjectVersion
1070
     0
  0
VISUALSTYLE
  5
3A
102
{ACAD_REACTORS
330
2A
102
}
330
2A
100
AcDbVisualStyle
  2
ColorChange
 70
    16
 71
     2
 72
     2
 73
     3
 90
        0
 40
-0.6
 41
-30.0
 62
     5
 63
     8
 74
     1
 91
        4
 64
     7
 65
   257
 75
     1
175
     1
 42
1.0
 92
        8
 66
     8
 43
1.0
 76
     1
 77
     6
 78
     2
 67
     7
 79
     5
170
     0
171
     0
290
     0
174
     0
 93
        1
 44
0.0
173
     0
291
     1
 45
0.0
1001
ACAD
1000
AcDbSavedByObjectVersion
1070
     0
  0
VISUALSTYLE
  5
34
102
{ACAD_REACTORS
330
2A
102
}
330
2A
100
AcDbVisualStyle
  2
Conceptual
 70
     9
 71
     3
 72
     2
 73
     0
 90
        0
 40
-0.6
 41
-30.0
 62
     5
 63
     7
 74
     2
 91
        2
 64
     7
 65
   257
 75
     1
175
     1
 42
40.0
 92
        8
 66
     7
 43
1.0
 76
     1
 77
     6
 78
     2
 67
     7
 79
     3
170
     0
171
     0
290
     0
174
     0
 93
        1
 44
0.0
173
     0
291
     0
 45
0.0
1001
ACAD
1000
AcDbSavedByObjectVersion
1070
     0
  0
VISUALSTYLE
  5
35
102
{ACAD_REACTORS
330
2A
102
}
330
2A
100
AcDbVisualStyle
  2
Dim
 70
    11
 71
     2
 72
     2
 73
     0
 90
        0
 40
-0.6
 41
-30.0
 62
     5
 63
     7
 74
     1
 91
        4
 64
     7
 65
   257
 75
     1
175
     1
 42
1.0
 92
        8
 66
     7
 43
1.0
 76
     1
 77
     6
 78
     2
 67
     7
 79
     5
170
     0
171
     0
290
     0
174
     0
 93
        1
 44
-50.0
173
     0
291
     1
 45
0.0
1001
ACAD
1000
AcDbSavedByObjectVersion
1070
     0
  0
VISUALSTYLE
  5
39
102
{ACAD_REACTORS
330
2A
102
}
330
2A
100
AcDbVisualStyle
  2
Facepattern
 70
    15
 71
     2
 72
     2
 73
     0
 90
        0
 40
-0.6
 41
-30.0
 62
     5
 63
     7
 74
     1
 91
        4
 64
     7
 65
   257
 75
     1
175
     1
 42
1.0
 92
        8
 66
     7
 43
1.0
 76
     1
 77
     6
 78
     2
 67
     7
 79
     5
170
     0
171
     0
290
     0
174
     0
 93
        1
 44
0.0
173
     0
291
     1
 45
0.0
1001
ACAD
1000
AcDbSavedByObjectVersion
1070
     0
  0
VISUALSTYLE
  5
2B
102
{ACAD_REACTORS
330
2A
102
}
330
2A
100
AcDbVisualStyle
  2
Flat
 70
     0
 71
     2
 72
     1
 73
     1
 90
        2
 40
-0.6
 41
30.0
 62
     5
 63
     7
 74
     0
 91
        4
 64
     7
 65
   257
 75
     1
175
     1
 42
1.0
 92
        8
 66
     7
 43
1.0
 76
     1
 77
     6
 78
     2
 67
     7
 79
     5
170
     0
171
     0
290
     0
174
     0
 93
       13
 44
0.0
173
     0
291
     1
 45
0.0
1001
ACAD
1000
AcDbSavedByObjectVersion
1070
     0
  0
VISUALSTYLE
  5
2C
102
{ACAD_REACTORS
330
2A
102
}
330
2A
100
AcDbVisualStyle
  2
FlatWithEdges
 70
     1
 71
     2
 72
     1
 73
     1
 90
        2
 40
-0.6
 41
30.0
 62
     5
 63
     7
 74
     1
 91
        4
 64
     7
 65
   257
 75
     1
175
     1
 42
1.0
 92
        0
 66
   257
 43
1.0
 76
     1
 77
     6
 78
     2
 67
     7
 79
     5
170
     0
171
     0
290
     0
174
     0
 93
       13
 44
0.0
173
     0
291
     1
 45
0.0
1001
ACAD
1000
AcDbSavedByObjectVersion
1070
     0
  0
VISUALSTYLE
  5
2D
102
{ACAD_REACTORS
330
2A
102
}
330
2A
100
AcDbVisualStyle
  2
Gouraud
 70
     2
 71
     2
 72
     2
 73
     1
 90
        2
 40
-0.6
 41
30.0
 62
     5
 63
     7
 74
     0
 91
        4
 64
     7
 65
   257
 75
     1
175
     1
 42
1.0
 92
        0
 66
     7
 43
1.0
 76
     1
 77
     6
 78
     2
 67
     7
 79
     5
170
     0
171
     0
290
     0
174
     0
 93
       13
 44
0.0
173
     0
291
     1
 45
0.0
1001
ACAD
1000
AcDbSavedByObjectVersion
1070
     0
  0
VISUALSTYLE
  5
2E
102
{ACAD_REACTORS
330
2A
102
}
330
2A
100
AcDbVisualStyle
  2
GouraudWithEdges
 70
     3
 71
     2
 72
     2
 73
     1
 90
        2
 40
-0.6
 41
30.0
 62
     5
 63
     7
 74
     1
 91
        4
 64
     7
 65
   257
 75
     1
175
     1
 42
1.0
 92
        0
 66
   257
 43
1.0
 76
     1
 77
     6
 78
     2
 67
     7
 79
     5
170
     0
171
     0
290
     0
174
     0
 93
       13
 44
0.0
173
     0
291
     1
 45
0.0
1001
ACAD
1000
AcDbSavedByObjectVersion
1070
     0
  0
VISUALSTYLE
  5
38
102
{ACAD_REACTORS
330
2A
102
}
330
2A
100
AcDbVisualStyle
  2
Linepattern
 70
    14
 71
     2
 72
     2
 73
     0
 90
        0
 40
-0.6
 41
-30.0
 62
     5
 63
     7
 74
     1
 91
        4
 64
     7
 65
   257
 75
     7
175
     7
 42
1.0
 92
        8
 66
     7
 43
1.0
 76
     1
 77
     6
 78
     2
 67
     7
 79
     5
170
     0
171
     0
290
     0
174
     0
 93
        1
 44
0.0
173
     0
291
     1
 45
0.0
1001
ACAD
1000
AcDbSavedByObjectVersion
1070
     0
  0
VISUALSTYLE
  5
33
102
{ACAD_REACTORS
330
2A
102
}
330
2A
100
AcDbVisualStyle
  2
Realistic
 70
     8
 71
     2
 72
     2
 73
     0
 90
        0
 40
-0.6
 41
-30.0
 62
     5
 63
     7
 74
     1
 91
        0
 64
     7
 65
   257
 75
     1
175
     1
 42
1.0
 92
        8
 66
     8
 43
1.0
 76
     1
 77
     6
 78
     2
 67
     7
 79
     5
170
     0
171
     0
290
     0
174
     0
 93
       13
 44
0.0
173
     0
291
     0
 45
0.0
1001
ACAD
1000
AcDbSavedByObjectVersion
1070
     0
  0
VISUALSTYLE
  5
37
102
{ACAD_REACTORS
330
2A
102
}
330
2A
100
AcDbVisualStyle
  2
Thicken
 70
    13
 71
     2
 72
     2
 73
     0
 90
        0
 40
-0.6
 41
-30.0
 62
     5
 63
     7
 74
     1
 91
        4
 64
     7
 65
   257
 75
     1
175
     1
 42
1.0
 92
       12
 66
     7
 43
1.0
 76
     1
 77
     6
 78
     2
 67
     7
 79
     5
170
     0
171
     0
290
     0
174
     0
 93
        1
 44
0.0
173
     0
291
     1
 45
0.0
1001
ACAD
1000
AcDbSavedByObjectVersion
1070
     0
  0
XRECORD
  5
75
102
{ACAD_REACTORS
330
6C
102
}
330
6C
100
AcDbXrecord
 90
        0
  0
XRECORD
  5
8B
102
{ACAD_REACTORS
330
6C
102
}
330
6C
100
AcDbXrecord
1000
DSTYLE
1002
{
1070
   340
340
11
1002
}
  0
XRECORD
  5
76
102
{ACAD_REACTORS
330
6C
102
}
330
6C
100
AcDbXrecord
  1
{901D0B1C-F6E9-4C32-BD6A-06180F3ADCBC}
  0
XRECORD
  5
6F
102
{ACAD_REACTORS
330
6C
102
}
330
6C
100
AcDbXrecord
  1

  0
XRECORD
  5
74
102
{ACAD_REACTORS
330
6C
102
}
330
6C
100
AcDbXrecord
 90
        4
  0
XRECORD
  5
71
102
{ACAD_REACTORS
330
6C
102
}
330
6C
100
AcDbXrecord
340
1A
  0
XRECORD
  5
73
102
{ACAD_REACTORS
330
6C
102
}
330
6C
100
AcDbXrecord
 90
    10781
  0
XRECORD
  5
72
102
{ACAD_REACTORS
330
6C
102
}
330
6C
100
AcDbXrecord
340
19
  0
XRECORD
  5
78
102
{ACAD_REACTORS
330
6C
102
}
330
6C
100
AcDbXrecord
 40
0.0
  0
XRECORD
  5
7B
102
{ACAD_REACTORS
330
6C
102
}
330
6C
100
AcDbXrecord
340
0
  0
XRECORD
  5
81
102
{ACAD_REACTORS
330
6C
102
}
330
6C
100
AcDbXrecord
 10
0.0
 20
0.0
 30
0.0
  0
XRECORD
  5
7D
102
{ACAD_REACTORS
330
6C
102
}
330
6C
100
AcDbXrecord
 10
0.0
 20
0.0
 30
0.0
  0
XRECORD
  5
80
102
{ACAD_REACTORS
330
6C
102
}
330
6C
100
AcDbXrecord
 10
0.0
 20
0.0
 30
0.0
  0
XRECORD
  5
7E
102
{ACAD_REACTORS
330
6C
102
}
330
6C
100
AcDbXrecord
 10
0.0
 20
0.0
 30
0.0
  0
XRECORD
  5
7F
102
{ACAD_REACTORS
330
6C
102
}
330
6C
100
AcDbXrecord
 10
0.0
 20
0.0
 30
0.0
  0
XRECORD
  5
7C
102
{ACAD_REACTORS
330
6C
102
}
330
6C
100
AcDbXrecord
 10
0.0
 20
0.0
 30
0.0
  0
XRECORD
  5
79
102
{ACAD_REACTORS
330
6C
102
}
330
6C
100
AcDbXrecord
340
0
  0
XRECORD
  5
7A
102
{ACAD_REACTORS
330
6C
102
}
330
6C
100
AcDbXrecord
 70
     0
  0
XRECORD
  5
70
102
{ACAD_REACTORS
330
6C
102
}
330
6C
100
AcDbXrecord
  1

  0
XRECORD
  5
6D
102
{ACAD_REACTORS
330
6C
102
}
330
6C
100
AcDbXrecord
 90
        1
  0
XRECORD
  5
6E
102
{ACAD_REACTORS
330
6C
102
}
330
6C
100
AcDbXrecord
 90
       70
  0
XRECORD
  5
84
102
{ACAD_REACTORS
330
6C
102
}
330
6C
100
AcDbXrecord
340
0
  0
XRECORD
  5
8A
102
{ACAD_REACTORS
330
6C
102
}
330
6C
100
AcDbXrecord
 10
0.0
 20
0.0
 30
0.0
  0
XRECORD
  5
86
102
{ACAD_REACTORS
330
6C
102
}
330
6C
100
AcDbXrecord
 10
0.0
 20
0.0
 30
0.0
  0
XRECORD
  5
89
102
{ACAD_REACTORS
330
6C
102
}
330
6C
100
AcDbXrecord
 10
0.0
 20
0.0
 30
0.0
  0
XRECORD
  5
87
102
{ACAD_REACTORS
330
6C
102
}
330
6C
100
AcDbXrecord
 10
0.0
 20
0.0
 30
0.0
  0
XRECORD
  5
88
102
{ACAD_REACTORS
330
6C
102
}
330
6C
100
AcDbXrecord
 10
0.0
 20
0.0
 30
0.0
  0
XRECORD
  5
85
102
{ACAD_REACTORS
330
6C
102
}
330
6C
100
AcDbXrecord
 10
0.0
 20
0.0
 30
0.0
  0
XRECORD
  5
82
102
{ACAD_REACTORS
330
6C
102
}
330
6C
100
AcDbXrecord
340
0
  0
XRECORD
  5
83
102
{ACAD_REACTORS
330
6C
102
}
330
6C
100
AcDbXrecord
 70
     0
  0
XRECORD
  5
77
102
{ACAD_REACTORS
330
6C
102
}
330
6C
100
AcDbXrecord
  1
{FAEB1C32-E019-11D5-929B-00C0DF256EC4}
  0
DICTIONARYVAR
  5
8D
102
{ACAD_REACTORS
330
8C
102
}
330
8C
100
DictionaryVariables
280
     0
  1
1:1
  0
ENDSEC
  0
EOF
