  0
SECTION
  2
HEADER
  9
$ACADVER
  1
AC1009
  9
$MEASUREMENT
  70
1
  9
$INSUNITS
  70
4
  9
$DIMLFAC
  40
1
  9
$INSBASE
  10
0.0
  20
0.0
  30
0.0
  9
$EXTMIN
  10
20
  20
20
  9
$EXTMAX
  10
79.396964418352
  20
79.213537500764
  9
$LIMMIN
  10
20
  20
20
  9
$LIMMAX
  10
79.396964418352
  20
79.213537500764
  9
$CLAYER
  8
0
  0
ENDSEC
  0
SECTION
  2
TABLES
  0
TABLE
  2
LTYPE
  70
2
  0
LTYPE
  2
CONTINUOUS
  70
65
  3
Solid line
  72
65
  73
0
  40
0
  0
LTYPE
  2
DASHED
  70
65
  3
 _ _ _ _ _ _ _ _ _ _ _ _ _ _ _ _ _ _ _ _ _ _
  72
65
  73
2
  40
2
  49
1
  49
-1
  0
ENDTAB
  0
TABLE
  2
LAYER
  70
1
  0
LAYER
  2
0
  70
0
  62
7
  6
CONTINUOUS
  0
ENDTAB
  0
ENDSEC
  0
SECTION
  2
BLOCKS
  0
ENDSEC
  0
SECTION
  2
ENTITIES
  0
LINE
  8
0
  10
20
  20
77
  30
10
  11
20
  21
20
  31
10
  0
LINE
  8
0
  10
20
  20
20
  30
10
  11
77
  21
20
  31
10
  0
LINE
  8
0
  10
77
  20
20
  30
10
  11
77
  21
77
  31
10
  0
LINE
  8
0
  10
77
  20
77
  30
10
  11
20
  21
77
  31
10
  0
LINE
  8
0
  10
24.93
  20
72.07
  30
0
  11
24.93
  21
24.93
  31
0
  0
LINE
  8
0
  10
24.93
  20
24.93
  30
0
  11
72.07
  21
24.93
  31
0
  0
LINE
  8
0
  10
72.07
  20
24.93
  30
0
  11
72.07
  21
72.07
  31
0
  0
LINE
  8
0
  10
72.07
  20
72.07
  30
0
  11
24.93
  21
72.07
  31
0
  0
CIRCLE
  8
0
  10
48.5
  20
48.5
  30
0
  40
19.05
  0
CIRCLE
  8
0
  10
24.93
  20
72.07
  30
0
  40
2.5
  0
CIRCLE
  8
0
  10
72.07
  20
72.07
  30
0
  40
2.5
  0
CIRCLE
  8
0
  10
24.93
  20
24.93
  30
0
  40
2.5
  0
CIRCLE
  8
0
  10
72.07
  20
24.93
  30
0
  40
2.5
  0
LINE
  8
0
  10
24.93
  20
72.07
  30
0
  11
24.93
  21
74.57
  31
0
  0
LINE
  8
0
  10
24.93
  20
72.07
  30
0
  11
22.43
  21
72.07
  31
0
  0
LINE
  8
0
  10
20
  20
77
  30
0
  11
77
  21
20
  31
0
  0
LINE
  8
0
  10
20
  20
20
  30
0
  11
77
  21
77
  31
0
  0
LINE
  8
0
  10
72.07
  20
72.07
  30
0
  11
72.07
  21
74.57
  31
0
  0
LINE
  8
0
  10
20.071384560258
  20
79.213537500764
  30
10
  11
37.140243038596
  21
79.213537500764
  31
10
  0
LINE
  8
0
  10
77.071384560258
  20
79.213537500764
  30
10
  11
60.846671851362
  21
79.213537500764
  31
10
  0
LINE
  8
0
  10
24.872891984444
  20
76.198188158883
  30
0
  11
42.200601993707
  21
76.198188158883
  31
0
  0
LINE
  8
0
  10
72.012891984444
  20
76.198188158883
  30
0
  11
54.952679275249
  21
76.198188158883
  31
0
  0
LINE
  8
0
  10
20.071384560258
  20
78.213537500764
  30
10
  11
20.071384560258
  21
79.213537500764
  31
10
  0
LINE
  8
0
  10
77.071384560258
  20
78.213537500764
  30
10
  11
77.071384560258
  21
79.213537500764
  31
10
  0
LINE
  8
0
  10
37.140243038596
  20
79.213537500764
  30
10
  11
43.824022270198
  21
79.213537500764
  31
10
  0
LINE
  8
0
  10
60.846671851362
  20
79.213537500764
  30
10
  11
53.869047661647
  21
79.213537500764
  31
10
  0
LINE
  8
0
  10
35.029615818396
  20
35.029615818396
  30
0
  11
29.209823130692
  21
40.849408506101
  31
0
  0
LINE
  8
0
  10
61.970384181604
  20
61.970384181604
  30
0
  11
56.150591493899
  21
67.790176869308
  31
0
  0
LINE
  8
0
  10
45.313868668456
  20
56.954885048629
  30
0
  11
56.150591493899
  21
67.790176869308
  31
0
  0
LINE
  8
0
  10
29.209823130692
  20
40.849408506101
  30
0
  11
40.046545956135
  21
51.68470032678
  31
0
  0
LINE
  8
0
  10
72.07
  20
24.93
  30
0
  11
74.57
  21
24.93
  31
0
  0
LINE
  8
0
  10
72.07
  20
72.07
  30
0
  11
74.57
  21
72.07
  31
0
  0
LINE
  8
0
  10
24.872891984444
  20
75.198188158883
  30
20
  11
24.872891984444
  21
76.198188158883
  31
20
  0
LINE
  8
0
  10
72.012891984444
  20
75.198188158883
  30
20
  11
72.012891984444
  21
76.198188158883
  31
20
  0
LINE
  8
0
  10
78.396964418352
  20
77.10745879932
  30
10
  11
79.396964418352
  21
77.10745879932
  31
10
  0
LINE
  8
0
  10
78.396964418352
  20
20.10745879932
  30
10
  11
79.396964418352
  21
20.10745879932
  31
10
  0
LINE
  8
0
  10
79.396964418352
  20
77.10745879932
  30
10
  11
79.396964418352
  21
49.85109443754
  31
10
  0
LINE
  8
0
  10
79.396964418352
  20
20.10745879932
  30
10
  11
79.396964418352
  21
47.165856783117
  31
10
  0
LINE
  8
0
  10
75.019998813964
  20
72.08451609049
  30
20
  11
76.019998813964
  21
72.08451609049
  31
20
  0
LINE
  8
0
  10
75.019998813964
  20
24.94451609049
  30
20
  11
76.019998813964
  21
24.94451609049
  31
20
  0
LINE
  8
0
  10
76.019998813964
  20
72.08451609049
  30
11.5875
  11
76.019998813964
  21
53.734997303252
  31
11.5875
  0
LINE
  8
0
  10
76.019998813964
  20
24.94451609049
  30
11.5875
  11
76.019998813964
  21
51.371041108391
  31
11.5875
  0
LINE
  8
0
  10
24.93
  20
22.43
  30
11.5875
  11
24.93
  21
24.93
  31
11.5875
  0
LINE
  8
0
  10
21.259493907424
  20
74.582015191427
  30
20
  11
22.259493907424
  21
74.582015191427
  31
20
  0
LINE
  8
0
  10
21.259493907424
  20
69.582015191427
  30
20
  11
22.259493907424
  21
69.582015191427
  31
20
  0
LINE
  8
0
  10
21.259493907424
  20
69.582015191427
  30
11.5875
  11
21.259493907424
  21
74.582015191427
  31
11.5875
  0
ENDSEC
  0
EOF
